<svg xmlns="http://www.w3.org/2000/svg" viewBox="0 0 410.07 500"><defs><linearGradient id="Безымянный_градиент_15" x1="-2093.15" y1="3284.72" x2="-2093.15" y2="3269.47" gradientTransform="matrix(.87 .5 -1 .58 5177.07 -498.3)" gradientUnits="userSpaceOnUse"><stop offset=".21" stop-color="#fff" stop-opacity="0"/><stop offset="1" stop-color="#fff" stop-opacity=".2"/></linearGradient><style>.cls-1{fill:#d6d8e5;opacity:.4}.cls-2{fill:#b1b4c4}.cls-3{fill:#616e84}.cls-4{fill:#20232d}.cls-5,.cls-7{fill:#fff}.cls-6{fill:#2b303f}.cls-7{opacity:.1}.cls-8{fill:#757b89}.cls-9{fill:#e9eaf2}.cls-10{fill:#d9dae2}.cls-11{fill:#38226d}.cls-12{fill:#9c73ff}.cls-13{fill:#8c50ff}.cls-14{fill:#ffcea9}.cls-15{fill:#f4f4f4}.cls-17{fill:#ededed}.cls-18{fill:#2b2a30}.cls-19{fill:#bf4b4b}.cls-27{fill:#cc8b09}</style></defs><g id="Слой_2" data-name="Слой 2"><g id="Слой_1-2" data-name="Слой 1"><path class="cls-1" d="m245.87 412.19-87.81-50.56a3.25 3.25 0 0 1 .13-5.69l11.05-5.69a3.25 3.25 0 0 1 3.1.07l90.76 52.26a3.24 3.24 0 0 1-.13 5.69l-8 4.13a9.48 9.48 0 0 1-9.1-.21Z"/><path class="cls-2" d="m251.25 402.67-74.82-43.2C170.09 355.81 165 346 165 337.55V128.83c0-8.45 5.14-12.33 11.48-8.67l74.82 43.2c6.34 3.66 11.48 13.47 11.48 21.92V394c-.05 8.45-5.19 12.33-11.53 8.67Z"/><path class="cls-2" d="m252.54 406.44 5.93-3-5.69-9.75-.24 12.75zm-88.75-284.2 5.46-2.86-1.1 8.04-4.36-5.18z"/><path class="cls-3" d="m246.48 405.06-74.82-43.2c-6.34-3.66-11.48-13.48-11.48-21.93V131.22c0-8.45 5.14-12.34 11.48-8.68l74.82 43.2c6.34 3.66 11.48 13.48 11.48 21.93v208.71c.04 8.45-5.14 12.34-11.48 8.68Z"/><path class="cls-4" d="M257.16 188.2v208.71c0 8.46-5.13 12.34-11.47 8.68l-29.35-16.94-9.12-5.27-36.36-21c-6.34-3.66-11.47-13.47-11.47-21.93v-208.7c0-8.46 5.13-12.33 11.47-8.68l74.83 43.2c6.31 3.66 11.47 13.47 11.47 21.93Z"/><path class="cls-5" d="M251.77 186.08v203.28c0 5.12-3.59 7.2-8 4.63l-23.39-13.5-2.07-1.19-.69-.41-5.08-2.89-14.64-8.43-6.07-3.5-2.44-1.41-16.58-9.57c-4.43-2.56-8-8.79-8-13.92V135.86c0-5.12 3.59-7.2 8-4.64L202 148.09v.08a13.83 13.83 0 0 0 6.27 10.83c3.46 2 6.26.37 6.26-3.61v-.09l29.22 16.87c4.43 2.56 8.02 8.83 8.02 13.91Z"/><ellipse class="cls-6" cx="208.28" cy="153.99" rx="1.94" ry="3.35" transform="matrix(.87 -.5 .5 .87 -49.09 124.78)"/><path class="cls-7" d="M208.28 155.14a2.21 2.21 0 0 1-1-1.72c0-.64.45-.89 1-.58a2.2 2.2 0 0 1 1 1.73c-.01.63-.45.89-1 .57Z"/><path class="cls-8" d="M260.2 215.66c-.61.36-1.11 0-1.11-.83v-8.9a2.64 2.64 0 0 1 1.11-2.11c.61-.36 1.1 0 1.1.83v8.9a2.63 2.63 0 0 1-1.1 2.11Zm0 14.58c-.61.36-1.11 0-1.11-.83v-8.9a2.64 2.64 0 0 1 1.11-2.11c.61-.36 1.1 0 1.1.83v8.9a2.63 2.63 0 0 1-1.1 2.11Z"/><path class="cls-9" d="m237.67 207.53-60.77-35.09a7.38 7.38 0 0 1-3.09-5.9V149.8c0-2.27 1.38-3.32 3.09-2.33l60.77 35.08a7.43 7.43 0 0 1 3.09 5.91v16.73c0 2.28-1.39 3.32-3.09 2.34Z"/><path class="cls-9" d="M173.81 164.71v15.46l8.58-4.56-8.58-10.9z"/><path class="cls-10" d="m232 190.58-45.83-26.46v-4.76L232 185.82v4.76zm-23.17-6.24-22.66-13.09v-4.75l22.66 13.08v4.76z"/><path class="cls-9" d="m221.19 283.34-44.29-25.57a7.38 7.38 0 0 1-3.09-5.9v-8.71c0-2.27 1.38-3.32 3.09-2.33l44.29 25.57a7.41 7.41 0 0 1 3.09 5.9v8.7c0 2.28-1.39 3.33-3.09 2.34Z"/><path class="cls-9" d="M173.81 249.75v15.46l8.58-4.56-8.58-10.9z"/><path class="cls-10" d="m217.68 275.67-34.55-19.95v-4.76l34.55 19.95v4.76z"/><path class="cls-9" d="m198.4 231.43 39.27 22.67c1.7 1 3.09-.06 3.09-2.33V235a7.4 7.4 0 0 0-3.09-5.9l-39.27-22.65c-1.71-1-3.09.07-3.09 2.34v16.74a7.4 7.4 0 0 0 3.09 5.9Z"/><path class="cls-9" d="M240.76 249.94v15.46l-8.59-14.47 8.59-.99z"/><path class="cls-10" d="m203.42 220.65 25.94 14.98v-4.76l-25.94-14.97v4.75zm0 7.14 13.9 8.03v-4.76l-13.9-8.03v4.76z"/><path class="cls-9" d="m176.9 307.62 60.41 34.88c1.71 1 3.09-.06 3.09-2.34v-16.73a7.4 7.4 0 0 0-3.09-5.91l-60.41-34.88c-1.71-1-3.09.06-3.09 2.34v16.74a7.4 7.4 0 0 0 3.09 5.9Z"/><path class="cls-9" d="M240.4 338.34v15.46l-8.58-14.47 8.58-.99z"/><path class="cls-10" d="m183.08 297.51 42.74 24.68v-4.76l-42.74-24.68v4.76zm0 7.14 39.82 22.99v-4.76l-39.82-22.99v4.76z"/><path class="cls-9" d="m237.67 379-60.77-35.1a8 8 0 0 1-3.61-6.25v-8.32c0-2.3 1.62-3.23 3.61-2.08l60.77 35.08a8 8 0 0 1 3.6 6.25v8.32c0 2.3-1.62 3.23-3.6 2.1Zm-60.77-50.56c-1.42-.82-2.58-.16-2.58 1.48v8.33a5.7 5.7 0 0 0 2.58 4.46l60.77 35.08c1.42.82 2.57.16 2.57-1.48V368a5.69 5.69 0 0 0-2.57-4.46Z"/><path class="cls-9" d="m179.3 341.12-1.03-.59v-7.93l1.03.59v7.93z"/><g id="Men_8"><ellipse class="cls-1" cx="361.95" cy="291.11" rx="34.64" ry="20"/><path class="cls-11" d="M381 286c-2.41 2-6 .17-6.14.35a106.6 106.6 0 0 1-8.89 7.4c-1.5 1.18-3.84 2.76-3.42 5 .76 4.06 7.26 2.81 9.71 1.57s4.45-3.3 6.77-4.74c1.66-1 3.29-1.56 3.55-3.65.17-1.24-1.13-5.99-1.58-5.93Z"/><path class="cls-12" d="M382.56 291.11c-.31 2-1.92 2.55-3.56 3.57-2.36 1.46-4.44 3.58-6.89 4.82-2.26 1.14-7.91 2.28-9.5-.62.86 3.92 7.24 2.69 9.67 1.46s4.45-3.3 6.77-4.74c1.66-1 3.29-1.56 3.55-3.65a4.36 4.36 0 0 0-.04-.84Z"/><path class="cls-11" d="M360.12 278.22c-2.41 2-6.63-.18-6.8 0a94.73 94.73 0 0 1-7.95 7.17c-1.5 1.18-3.84 2.76-3.41 5 .75 4.06 7.25 2.81 9.7 1.57s4.46-3.3 6.78-4.74c1.65-1 3.28-1.56 3.54-3.65.15-1.24-1.43-5.4-1.86-5.35Z"/><path class="cls-12" d="M361.9 283c-.31 2-1.92 2.55-3.56 3.57-2.36 1.47-4.44 3.58-6.89 4.82-2.26 1.15-7.91 2.29-9.5-.61.86 3.91 7.25 2.68 9.67 1.45s4.45-3.29 6.78-4.74c1.65-1 3.28-1.56 3.54-3.65a4.39 4.39 0 0 0-.04-.84Z"/><path id="_Контур_" data-name="&lt;Контур&gt;" class="cls-13" d="M381.1 197c-.11 3.65-1.25 19.47-1.75 27.84s-.63 18.64-.63 18.64 1.45 6.1 2.38 13.27 0 29.8 0 29.8a5.69 5.69 0 0 1-6.17 0s-3.85-18.11-5.64-26.27-2.09-12.86-3-17.92c-1.12-6.12-3.54-34.68-3.54-34.68l-1 .06-2.56 32.26a36.25 36.25 0 0 1 1.63 7.32c.7 5.25-.74 31.67-.74 31.67a6.4 6.4 0 0 1-6.67-.28s-6.44-35-6.44-40.31c0-3.52.6-50 .6-50Z"/><path id="_Контур_2" data-name="&lt;Контур&gt;" class="cls-14" d="M372.37 126.63s-.41 7.94-.23 8.65 3.64 3 4.65 3.86-5.49 7.25-8.65 8.7-13.18-2.37-13.35-7.29 1.71-9.05 3.25-9.27 14.33-4.65 14.33-4.65Z"/><path class="cls-14" d="M353.21 133.72s-2.15-3.29-10 15-12.69 23.09-16.21 27.64c-3.18 4.14-4.75-2.44-4.75-2.44s2.53-3.19.42-3.19c-1.18.07-2.83 2.5-2.83 2.5l2.69 4.3 7 3.55s8.57-7.88 11.34-12.74c3-3.83 7.49-11.43 7.49-11.43Z"/><path class="cls-4" d="M319.87 176.94c-.08-.06-2.17-2.49-2.17-2.49s-1.25-1.09.11-1.17 6.21-.09 6.21-.09a2 2 0 0 1 1.39.39c.61.48 7.64 9.38 7.64 9.38s.31.54-.6.6-6.8 0-6.8 0Z"/><path class="cls-14" d="M319.3 175.44s-2.07-.39-1.59 1.6 3.45 4.05 3.45 4.05l3.1 2.6a2.35 2.35 0 0 0 2.54 0c.8-.5 1.92-1.86.69-3.15s-2.33-4.12-5.47-4c0 0-.17-.75-2-1"/><path id="_Контур_3" data-name="&lt;Контур&gt;" class="cls-15" d="M373.26 136.65s-5.77 8.58-13.81 9.39c-2.53-2.5-2.76-11.39.75-14.23 0 0-3.23-2.61-5.44-2.1a12.06 12.06 0 0 0-5.62 6.54c-1.48 4.53-2.31 9.75-2.18 18.18s0 34.17 0 34.17 1.14 5.45 8.41 9.5 12.63 4.44 17.63 3.29c4.07-.95 7.43-2.38 8.83-5.33-.36-5.91-3-21.32-2-28.75s2.55-13 3-19-.8-5.89-3.81-8a46.72 46.72 0 0 0-5.76-3.66Z"/><path id="_Контур_4" data-name="&lt;Контур&gt;" class="cls-14" d="M376.48 200.49c1.2-1.34 3.26-8.77 4.44-13.46a47.23 47.23 0 0 0 .68-16.03c-1.06-6.4-4-15.26-4.83-18.93s.27-5.23 1.9-6.71c1.91-1.74 4.76-1.22 6.6 3.88a101 101 0 0 1 4.81 21.76 50.27 50.27 0 0 1-1.43 16.43c-1.23 5-3 8.62-5.34 13.2-.63 1.24-2.07 4.73-3 7.25s-4.92-6.17-3.83-7.39Z"/><path id="_Контур_5" data-name="&lt;Контур&gt;" class="cls-14" d="M354.39 114.79c.95-6.17 5.39-10.84 11.75-10.49a12.23 12.23 0 0 1 6.23 22.33 12.46 12.46 0 0 1-1 2.69c-2.25 2.63-9.05 4.26-11 4-2.51-.36-3.86-1.41-5.06-4.15-2.1-4.86-1.44-11.33-.92-14.38Z"/><path d="m372.37 126.63-.58-5.38s4.39-11.38-6-9.2c-6.86 1.45-8.58 2.07-10.66-2.53s5.27-8.73 14-7.58A12.07 12.07 0 0 1 380 114.18c-.28 3.39-1.18 10.24-7.63 12.45Z" style="fill:#3a2c6d"/><path class="cls-17" d="M390.14 157.5s-5.66 5.64-12.37 4c-1-.65-3.26-13.83-3.26-13.83s0-7.3 5.6-7.11 10.03 16.94 10.03 16.94ZM347 150.1s-3.67.46-4.89-1.26c.22-3 5.11-18.3 12.7-19.13a25.8 25.8 0 0 0-4.74 5.73c-2.71 4.49-3.07 14.66-3.07 14.66Z"/></g><g id="Men_2"><ellipse class="cls-1" cx="34.58" cy="480.04" rx="34.58" ry="19.96"/><path id="_Контур_6" data-name="&lt;Контур&gt;" class="cls-14" d="M9.22 330.53c-.39 3.36-4.39 17.85-3.53 22.82s14.55 13.27 14.55 13.27l1.9-8.5-7.59-7.43 2.05-14.08Z"/><path id="_Контур_7" data-name="&lt;Контур&gt;" class="cls-17" d="M19.81 316.24a6 6 0 0 0-7.62 2.31c-2 3.34-4.11 14.78-4.3 16.74 0 0 2.83 3.9 7.07 3.25Z"/><path class="cls-18" d="M35.45 477.85a11.74 11.74 0 0 0 8.86-1.07c2.14.07 13.73-4.89 15.3-.73 1.38 3.65-3.64 7-6.32 7.68-5.85 1.41-10.18 4.33-12.53 4.83-1.75.37-4 .61-5.42-.77-1.67-1.65-1.53-7.79.11-9.94Z"/><path class="cls-19" d="M40.76 487.55c2.35-.5 6.68-3.42 12.53-4.83 2.25-.55 6.12-3 6.51-5.94.52 3.36-4 6.34-6.51 7-5.85 1.41-10.18 4.33-12.53 4.83-1.75.37-4 .61-5.42-.77a3.34 3.34 0 0 1-.76-1.39 7 7 0 0 0 6.18 1.1Z"/><path class="cls-18" d="M16.66 469.41a11.74 11.74 0 0 0 8.86-1.07c2.13.07 13.72-4.89 15.3-.73 1.38 3.65-3.64 7-6.32 7.68-5.85 1.42-10.19 4.33-12.54 4.83-1.75.37-4 .61-5.41-.77-1.68-1.65-1.55-7.76.11-9.94Z"/><path class="cls-19" d="M22 479.11c2.35-.5 6.69-3.42 12.54-4.83 2.24-.55 6.12-3 6.51-5.94.52 3.36-4 6.34-6.51 7-5.85 1.42-10.19 4.33-12.54 4.83-1.75.37-4 .61-5.41-.77a3.47 3.47 0 0 1-.77-1.39 7 7 0 0 0 6.18 1.1Z"/><path id="_Контур_8" data-name="&lt;Контур&gt;" d="M16.43 437.93a70 70 0 0 1 2.67-12.69s-.79-10.95-1.19-21.34c-.46-11.78-4.55-22.15-1.32-31.56L53 380.43s-2.2 47-2.69 52.67a105.84 105.84 0 0 1-1.63 13.19c-1.66 9.12-4.36 30.81-4.36 30.81-3.84 2.24-8.89 1-8.89 1s.28-27.44.53-34c.3-8 .54-7.41.54-7.41l-1.2-20-.78-9.94s-1 7.3-1.66 13.82c-.58 5.68-2 10.82-3.48 21.4-1.33 9.18-3.49 27.62-3.49 27.62-3.84 2.23-9.06.38-9.06.38s-1.44-24.08-.4-32.04Z" style="fill:#e26161"/><path id="_Контур_9" data-name="&lt;Контур&gt;" class="cls-14" d="M21.74 316.44c2.77.14 4.83.85 5.17 0a36.35 36.35 0 0 0 .64-4.33c-.32-.81-.6-1.67-.6-1.67-3.47-2.14-4.57-5.9-5-10.27-.78-7.48 3.26-14 10.74-14.81 7-.74 12.21 4.21 13.59 11 .74 3.35 2.22 9.68.22 15.19-1.12 3.08-2.56 5.53-4 6a36.65 36.65 0 0 1-4.16-.37s-.37 2.07-.63 3.41-.15 2 2.5 3.67-4 5-8.37 4.67-9.26-3-10.61-5.78c-1.52-3.1-1.39-6.8.51-6.71Z"/><path id="_Контур_10" data-name="&lt;Контур&gt;" class="cls-15" d="M25.74 316.85c-.76 1.92 1.19 4.26 6.39 5.89s5.67-.47 5.67-.47 7.62 3.48 10.1 5.21c3.13 2.18 4.51 8.5 4.93 19.16.49 12.33.53 30.63.12 33.79 0 0-5.83 5.81-13.3 5.2s-20-7.22-23.07-12.32c.08-10.82 1.35-12.58-.4-18.81-4-14.26-6.12-20.1-4.18-29.58 1.61-7.81 3.86-8.78 7-8.71a65.29 65.29 0 0 1 6.74.64Z"/><path id="_Контур_11" data-name="&lt;Контур&gt;" class="cls-14" d="M64.56 356.84c-6.12 1.54-7.56-2.32-8.37-5.52-1.94-7.75-3-14.74-4.45-19.14-1.71-5.18-3.5-6-6-7-3-1.18-5.5 1.32-4.52 7.92 1.17 7.8 2.7 13.28 5.61 22.52.77 2.41 2.48 6.69 5 8.76 3.16 2.56 7.92 2.45 15.12.66 3.07-.77 6.44-2.6 12.25-5.31 1.58-.73 2.8-1.23 5.8-2.63a20.43 20.43 0 0 0 7.68-6c1.57-2.27 1.29-3.72 1-4.23s-.63-.13-1.47.82a16.58 16.58 0 0 1-4.41 4.08s1.94-2 3-3.3a16.72 16.72 0 0 0 2.32-3.78c.55-1.33-.59-3.13-1.46-2.18s-1.28 1.9-2.86 3.8a16.8 16.8 0 0 1-2.89 2.69 30.65 30.65 0 0 0 2.61-4.21c1-2.05-2.35-1-4.27 1-1.4 1.45-2.59 2.29-2.63 1.89s-2.76 2.53-4.15 4-7.08 3.69-12.91 5.16Z"/><path id="_Контур_12" data-name="&lt;Контур&gt;" class="cls-17" d="M43.45 324.11c4.09-.61 7 1.23 8.79 7.43s3.07 11.29 3.07 11.29a11.12 11.12 0 0 1-6.85 4.55c-4.9 1.18-6.66-1.15-6.66-1.15s-1.36-6.5-2.2-10.92-1.21-10.46 3.85-11.2Z"/><path class="cls-18" d="M46 295.4s6.46-9.83-7.54-11.83c-10.1-1.44-16.59 5.05-17.34 12.09-.72 6.73 3.42 13.71 6.42 16.49 1.46.52 4.6.82 8.73-1.06a50 50 0 0 0 .19-5.51S31.54 295.22 46 295.4Z"/></g><path class="cls-14" d="M78.82 349.11s-1.59-2.89-.58-3.61 2.45 2 2.74 3.05-.11-.32-.11-.32-1.09-3.27-.38-3.9 1.66.77 2.61 2.82.23-.17.23-.17-1.57-3.28-.9-3.74c.9-.6 2.38 1.34 3.26 3.09s-1.18 3.83-1.18 3.83Z"/><g id="Mobile"><path class="cls-2" d="M81.89 354.28 76 350.85c-.51-.29-.44-.79.14-1.13l14.34-8.28a2.19 2.19 0 0 1 2-.08l5.94 3.43c.5.29.44.8-.14 1.13l-14.43 8.28a2.16 2.16 0 0 1-1.96.08Z"/><path class="cls-2" d="M75.61 350.36v-.55l.64.24-.64.31zm23.06-5.1v-.52l-.51.32.51.2z"/><path class="cls-3" d="M81.89 353.82 76 350.39c-.51-.29-.44-.8.14-1.13L90.43 341a2.16 2.16 0 0 1 2-.08l5.94 3.43c.5.29.44.79-.14 1.13l-14.34 8.28a2.19 2.19 0 0 1-2 .06Z"/><ellipse class="cls-8" cx="76.61" cy="351" rx=".06" ry=".11" transform="matrix(.87 -.5 .5 .87 -165.24 85.34)"/><ellipse class="cls-8" cx="76.9" cy="351.16" rx=".06" ry=".11" transform="rotate(-30 76.9 351.185)"/><ellipse class="cls-8" cx="77.18" cy="351.33" rx=".06" ry=".11" transform="rotate(-30 77.197 351.345)"/><ellipse class="cls-8" cx="77.47" cy="351.49" rx=".06" ry=".11" transform="rotate(-30 77.476 351.5)"/><ellipse class="cls-8" cx="79.92" cy="352.91" rx=".06" ry=".11" transform="rotate(-30 79.936 352.919)"/><ellipse class="cls-8" cx="80.21" cy="353.08" rx=".06" ry=".11" transform="rotate(-30 80.21 353.092)"/><ellipse class="cls-8" cx="80.49" cy="353.24" rx=".06" ry=".11" transform="rotate(-30 80.507 353.252)"/><ellipse class="cls-8" cx="80.78" cy="353.41" rx=".06" ry=".11" transform="rotate(-30 80.78 353.425)"/><path class="cls-8" d="m79.09 352.55-.79-.45a.23.23 0 0 1-.09-.18c0-.06 0-.09.09-.06l.79.45a.21.21 0 0 1 .09.17c0 .07-.04.1-.09.07Zm17.78-5.99-.73.42s-.08 0-.08-.06a.23.23 0 0 1 .08-.16l.73-.42s.09 0 .09.06a.19.19 0 0 1-.09.16Zm-1.12.65-.73.42s-.08 0-.08-.06a.19.19 0 0 1 .08-.16l.73-.42s.09 0 .09.06a.2.2 0 0 1-.09.16Z"/><path class="cls-4" d="M81.89 353.74 76 350.31c-.51-.29-.44-.8.14-1.14l14.34-8.28a2.19 2.19 0 0 1 2-.08l5.94 3.43c.5.29.44.8-.14 1.13l-14.34 8.28a2.17 2.17 0 0 1-2.05.09Z"/><path class="cls-6" d="M97.69 344.38 95.38 343a1.08 1.08 0 0 1-1 0c-.28-.16-.28-.41 0-.57l-2.31-1.34a1.44 1.44 0 0 0-1.28 0l-14 8.06c-.35.21-.35.54 0 .74l5.63 3.25a1.42 1.42 0 0 0 1.27 0l14-8.07c.36-.16.36-.49 0-.69Z"/><path d="M97.69 344.38 95.38 343a1.08 1.08 0 0 1-1 0c-.28-.16-.28-.41 0-.57l-2.31-1.34a1.44 1.44 0 0 0-1.28 0l-14 8.06c-.35.21-.35.54 0 .74l5.63 3.25a1.42 1.42 0 0 0 1.27 0l14-8.07c.36-.16.36-.49 0-.69Z" style="opacity:.5;fill:url(#Безымянный_градиент_15)"/><ellipse class="cls-6" cx="94.72" cy="342.84" rx=".27" ry=".15"/><path class="cls-7" d="M94.64 342.89v-.09a.15.15 0 0 1 .16 0s0 .06 0 .09a.22.22 0 0 1-.16 0Z"/></g><path class="cls-14" d="M91.12 352.91s3.14-2.83 3-6.58c-.19-2.61-1.77-.73-1.77-.73l-1.59 2.88a8.44 8.44 0 0 1-3 2.52 33.09 33.09 0 0 0-3.32.49c-1.95.38-3.89 2.82-3.89 2.82l2.45 1.93Z"/><path d="M76.55 220.38 18.74 187a4.49 4.49 0 0 0-3.85-.6 3 3 0 0 0-.69.4l-6.45 3.69 5 5.87v24.1a13.29 13.29 0 0 0 6 10.41l18 11.31 4.89 11.21-5.15 8.73 7.17-4.1 6.81-7.91 21.73 11.77 1.17 7 7.32-4.18.2-.12h.07a4.35 4.35 0 0 0 1.6-3.79v-30a13.29 13.29 0 0 0-6.01-10.41Z" style="fill:#ff7b7b"/><path d="m69.39 224.48-57.81-33.37c-3.32-1.92-6-.37-6 3.46v30a13.29 13.29 0 0 0 6 10.41l18 11.32 6.91 15.83 6.81-7.91 26.08 14.14c3.32 1.91 6 .36 6-3.47v-30a13.29 13.29 0 0 0-5.99-10.41Z" style="fill:#e26d6d"/><path class="cls-13" d="M404.05 34.26 346.12.82a4.49 4.49 0 0 0-3.86-.61 2.65 2.65 0 0 0-.69.4l-6.46 3.7 5 5.87v24.16a13.32 13.32 0 0 0 6 10.43l18.05 11.34 4.9 11.23-5.15 8.75L371.1 72l6.82-7.93 21.76 11.8 1.18 7 7.33-4.2.2-.11h.07a4.33 4.33 0 0 0 1.61-3.79v-30a13.32 13.32 0 0 0-6.02-10.51Z"/><path d="M404.05 34.26 346.12.82a4.49 4.49 0 0 0-3.86-.61 2.65 2.65 0 0 0-.69.4l-6.46 3.7 5 5.87v24.16a13.32 13.32 0 0 0 6 10.43l18.05 11.34 4.9 11.23-5.15 8.75L371.1 72l6.82-7.93 21.76 11.8 1.18 7 7.33-4.2.2-.11h.07a4.33 4.33 0 0 0 1.61-3.79v-30a13.32 13.32 0 0 0-6.02-10.51Z" style="opacity:.2"/><path class="cls-13" d="M396.86 38.37 338.94 4.93c-3.32-1.92-6-.36-6 3.48v30a13.32 13.32 0 0 0 6 10.43L357 60.22l6.93 15.87 6.82-7.93 26.12 14.16c3.33 1.92 6 .37 6-3.47v-30a13.31 13.31 0 0 0-6.01-10.48Z"/><ellipse class="cls-5" cx="349.06" cy="31.93" rx="3.39" ry="5.87" transform="rotate(-30 349.064 31.931)"/><ellipse class="cls-5" cx="366.23" cy="41.85" rx="3.39" ry="5.87" transform="matrix(.87 -.5 .5 .87 28.14 188.73)"/><ellipse class="cls-5" cx="383.41" cy="51.77" rx="3.39" ry="5.87" transform="rotate(-30 383.43 51.76)"/><path d="M304.48 96.86c0-7-4.93-15.57-11-19.08-3.24-1.87-6.14-1.92-8.15-.52l-3.66 2.07 1.56.62a10.66 10.66 0 0 0-.77 4.19c0 7 4.93 15.56 11 19.08a11.58 11.58 0 0 0 3 1.25v2.19l4.72-2.66c2.08-1.19 3.3-3.65 3.3-7.14Z" style="fill:#dd990e"/><ellipse cx="289.42" cy="92.84" rx="8.99" ry="15.58" transform="rotate(-30 289.426 92.831)" style="fill:#f9cb07"/><ellipse class="cls-27" cx="285.08" cy="87.46" rx="1.28" ry="2.22" transform="rotate(-30 285.102 87.473)"/><ellipse class="cls-27" cx="293.62" cy="92.39" rx="1.28" ry="2.22" transform="rotate(-30 293.623 92.396)"/><path class="cls-27" d="M285.08 94.26s1.44 3.94 4.34 5.61 4.6-.45 4.6-.45Z"/><path style="fill:#4399ff" d="m99.92 306.32 6.22 3.6v-16.03l-6.22-3.59v16.02z"/><path style="fill:#70b6fc" d="m106.14 293.91-6.22-3.6 5.04-2.91 6.47 3.62-5.29 2.89z"/><path class="cls-14" d="M129.76 305.34a4.53 4.53 0 0 0-2.2-3.73l-7.29-4.21 1.16-5.47v-.41a6 6 0 0 0-.24-1.72c-.22-.72-1-2.43-1.5-2.08l-7.63 4.41c-.46.13-.69.66-.69 1.46V307a5.15 5.15 0 0 0 2.31 4l10.41 6c.92.53 1.73.33 2.08-.4l3.47-7.48a2 2 0 0 0 .12-.87Z"/><path class="cls-14" d="m122.1 319.2 3.67-2.15-3.34-4.53-.33 6.68z"/><path d="M126.26 307.38a4.56 4.56 0 0 0-2.2-3.73l-7.29-4.2 1.16-5.48v-.4a6.07 6.07 0 0 0-.24-1.73c-.22-.72-1-2.42-1.5-2.08l-7.63 4.41c-.46.13-.69.67-.69 1.47V309a5.13 5.13 0 0 0 2.31 4l10.41 6c.92.54 1.73.34 2.08-.4l3.47-7.48a2 2 0 0 0 .12-.87Z" style="fill:#efbd9c"/></g></g></svg>