<svg xmlns="http://www.w3.org/2000/svg" viewBox="0 0 500 442.96"><defs><style>.cls-1{fill:#d6d8e5;opacity:.3}.cls-2{fill:#dd990e}.cls-3{fill:#f9cb07}.cls-4{fill:#cc8b09}.cls-5{fill:#e8a30a}.cls-6{fill:#f9ca06}.cls-8{fill:#7d90e2}</style></defs><g id="Слой_2" data-name="Слой 2"><g id="Слой_1-2" data-name="Слой 1"><g id="Coin"><ellipse class="cls-1" cx="132.95" cy="58.16" rx="46.31" ry="26.74"/><ellipse class="cls-2" cx="140" cy="52.46" rx="46.31" ry="26.74"/><path class="cls-2" d="M93.7 52.86V40.68l9.15 8.15-9.15 4.03zM186.31 41v11.45l-4.68 4.97-2.29-13.12 6.97-3.3z"/><ellipse class="cls-3" cx="140" cy="41" rx="46.31" ry="26.74"/><path class="cls-4" d="M173.09 41.83c-.47 4.5-3.67 8.93-9.64 12.38-12.95 7.47-33.95 7.47-46.89 0-6-3.45-9.18-7.88-9.64-12.38-.56-5.28 2.66-10.66 9.64-14.68 12.94-7.49 33.94-7.49 46.89 0 6.97 4.02 10.19 9.4 9.64 14.68Z"/><path class="cls-5" d="M173.09 41.83c-.47 4.5-3.67 8.93-9.64 12.38-12.95 7.47-33.95 7.47-46.89 0-6-3.45-9.18-7.88-9.64-12.38.46-4.51 3.67-8.94 9.64-12.39 12.94-7.48 33.94-7.48 46.89 0 5.97 3.45 9.17 7.88 9.64 12.39Z"/><path class="cls-4" d="M139.51 35.56a7.16 7.16 0 0 0-1.21.1q-.83.12-1.83.33c-.68.14-1.38.32-2.11.54a15.16 15.16 0 0 0-2.08.79l5.32 3.08 1-.34c1.35-.45 2.63-.83 3.83-1.15a18.51 18.51 0 0 1 3.45-.57 12.29 12.29 0 0 1 3.17.22 9.81 9.81 0 0 1 3 1.18 6.09 6.09 0 0 1 2.3 2 2.69 2.69 0 0 1 .33 2.08 4.63 4.63 0 0 1-1.24 2.06 13.46 13.46 0 0 1-2.44 1.93l3.39 1.95-1.85 1.07-3.41-2a28.19 28.19 0 0 1-5.13 1.94 33.87 33.87 0 0 1-5.6 1l-1.79-3.2a13 13 0 0 0 1.49-.11c.67-.08 1.41-.21 2.24-.38s1.68-.4 2.6-.67a19.1 19.1 0 0 0 2.6-1l-5.3-3.06a7 7 0 0 1-.69.24l-.72.23c-1.34.43-2.56.78-3.67 1a16.48 16.48 0 0 1-3.12.42 11.21 11.21 0 0 1-2.76-.26 9.48 9.48 0 0 1-2.55-1 6.53 6.53 0 0 1-2.22-1.91 3.2 3.2 0 0 1-.6-2 3.89 3.89 0 0 1 .88-2.07 9.21 9.21 0 0 1 2.16-2l-3.14-1.82 1.84-1.06L128.8 35a23 23 0 0 1 4.57-1.68 34 34 0 0 1 4.57-.82Zm-9 5.58a3.9 3.9 0 0 0 2.31.5 15.27 15.27 0 0 0 3.17-.71l-5-2.88c-1.86 1.2-1.99 2.23-.53 3.09ZM148 42.6a4.07 4.07 0 0 0-2.5-.45 21.05 21.05 0 0 0-3.47.77l5 2.86c2.02-1.29 2.35-2.35.97-3.18Z"/><path class="cls-4" d="M136.65 48.62v-1.79l2 1.31-.88 1.36Zm17.73 1.14v-1.79l-4.4.33 2.53 1.73 1.87-.27zm.37-6.59v-1.82l-3.29 1.2 3.29.62zm-13.65-.1 1.09-1 3.87 2.68-.24.79s-2.89-1.22-3-1.29-1.72-1.18-1.72-1.18ZM131 37.42l5.14 2.91 1-.77s-.65-.74-.7-.81a6.43 6.43 0 0 0-1.6-1.33c-.38-.08-2.81-1.17-2.81-1.17Zm8.51-1.86v-1.79l-2.35-.77-.51 1.41.12.64 2.74.51zm-15.66-1.3v-1.79l2.73.29-.88 1.74-1.85-.24zm.15 6.1v-1.87h3.13l-.76 1.67-1.37 1.5Z"/><path class="cls-6" d="M139.51 33.77a6.91 6.91 0 0 0-1.21.09q-.83.12-1.83.33c-.68.14-1.38.33-2.11.54a16.58 16.58 0 0 0-2.08.79l5.32 3.08 1-.34c1.35-.45 2.63-.83 3.83-1.14a17 17 0 0 1 3.45-.57 11.87 11.87 0 0 1 3.17.21 10.07 10.07 0 0 1 3 1.18 6.1 6.1 0 0 1 2.3 2 2.69 2.69 0 0 1 .33 2.08 4.6 4.6 0 0 1-1.24 2.05A12.64 12.64 0 0 1 151 46l3.39 2-1.86 1-3.41-2a28.19 28.19 0 0 1-5.12 2 33.87 33.87 0 0 1-5.6 1.05l-1.79-3.2a13.6 13.6 0 0 0 1.49-.12 21 21 0 0 0 2.24-.38c.82-.18 1.68-.4 2.6-.67a19.08 19.08 0 0 0 2.6-1l-5.3-3.06-.69.24-.72.22c-1.34.44-2.56.78-3.67 1a16.48 16.48 0 0 1-3.12.42 10.74 10.74 0 0 1-2.76-.26 9.17 9.17 0 0 1-2.55-1 6.52 6.52 0 0 1-2.22-1.9 3.24 3.24 0 0 1-.6-2 3.82 3.82 0 0 1 .88-2.07 9.46 9.46 0 0 1 2.16-2l-3.14-1.81 1.84-1.07 3.11 1.8a21.78 21.78 0 0 1 4.57-1.68 34.07 34.07 0 0 1 4.57-.83Zm-9 5.58a3.89 3.89 0 0 0 2.31.49 14.65 14.65 0 0 0 3.17-.71l-5-2.88c-1.86 1.2-1.99 2.23-.53 3.1ZM148 40.8a4 4 0 0 0-2.5-.44 20.9 20.9 0 0 0-3.47.76l5 2.86c2.02-1.29 2.35-2.35.97-3.18Z"/></g><g id="Coin-2" data-name="Coin"><ellipse class="cls-2" cx="143.78" cy="38.2" rx="46.31" ry="26.74"/><path class="cls-2" d="M97.48 38.6V26.42l9.15 8.15-9.15 4.03zm92.61-11.86V38.2l-4.67 4.96-2.3-13.11 6.97-3.31z"/><ellipse class="cls-3" cx="143.78" cy="26.74" rx="46.31" ry="26.74"/><path class="cls-4" d="M176.88 27.57c-.47 4.5-3.68 8.94-9.65 12.39-12.95 7.47-33.94 7.47-46.89 0-6-3.45-9.18-7.89-9.64-12.39-.56-5.27 2.66-10.66 9.64-14.68 12.95-7.48 33.94-7.48 46.89 0 6.98 4.02 10.2 9.41 9.65 14.68Z"/><path class="cls-5" d="M176.88 27.57c-.47 4.5-3.68 8.94-9.65 12.39-12.95 7.47-33.94 7.47-46.89 0-6-3.45-9.18-7.89-9.64-12.39.46-4.51 3.67-8.94 9.64-12.39 12.95-7.48 33.94-7.48 46.89 0 5.97 3.45 9.18 7.88 9.65 12.39Z"/><path class="cls-4" d="M143.3 21.3a7.26 7.26 0 0 0-1.22.1q-.81.12-1.83.33c-.68.14-1.38.32-2.11.54a15.16 15.16 0 0 0-2.08.79l5.33 3.08 1-.34c1.36-.45 2.63-.83 3.84-1.15a18.55 18.55 0 0 1 3.44-.57 12.26 12.26 0 0 1 3.17.22 10.23 10.23 0 0 1 3 1.18 6.06 6.06 0 0 1 2.29 2 2.73 2.73 0 0 1 .34 2.08 4.68 4.68 0 0 1-1.25 2.05 13.73 13.73 0 0 1-2.43 1.92l3.39 2-1.85 1.07-3.42-2a27.91 27.91 0 0 1-5.08 1.92 32.48 32.48 0 0 1-5.6 1l-1.78-3.19a14 14 0 0 0 1.49-.12c.67-.08 1.41-.2 2.23-.38s1.69-.4 2.6-.67a17.86 17.86 0 0 0 2.6-1l-5.29-3-.7.24-.72.22c-1.33.44-2.55.78-3.66 1a16.57 16.57 0 0 1-3.13.42 10.67 10.67 0 0 1-2.75-.26 9.68 9.68 0 0 1-2.56-1 6.57 6.57 0 0 1-2.21-1.9 3.25 3.25 0 0 1-.6-2.06 3.87 3.87 0 0 1 .87-2.07 9.65 9.65 0 0 1 2.16-1.95l-3.15-1.8 1.85-1.07 3.11 1.79a22.11 22.11 0 0 1 4.57-1.67 32.3 32.3 0 0 1 4.57-.83Zm-9.05 5.58a3.81 3.81 0 0 0 2.31.5 15.27 15.27 0 0 0 3.17-.71l-5-2.88q-2.73 1.8-.48 3.09Zm17.48 1.46a4 4 0 0 0-2.49-.44 20 20 0 0 0-3.48.76l5 2.86q3.13-1.93.97-3.18Z"/><path class="cls-4" d="M140.44 34.37c.05-.14 0-1.8 0-1.8l2 1.31-.89 1.36Zm17.72 1.13v-1.79l-4.4.33 2.53 1.73 1.87-.27zm.38-6.59V27.1l-3.3 1.19 3.3.62zm-13.66-.09 1.1-1.05 3.86 2.67-.23.79s-2.89-1.22-3-1.29-1.73-1.12-1.73-1.12Zm-10.12-5.66 5.13 2.91 1.05-.76s-.64-.74-.69-.82a6.82 6.82 0 0 0-1.6-1.33c-.38-.07-2.82-1.16-2.82-1.16Zm8.54-1.86v-1.79l-2.36-.77-.5 1.41.12.64 2.74.51zm-15.67-1.29v-1.8l2.73.29-.88 1.75-1.85-.24zm.1 6.09v-1.87h3.14l-.77 1.67-1.36 1.5Z"/><path class="cls-6" d="M143.3 19.51a7.26 7.26 0 0 0-1.22.1 24.456 24.456 0 0 0-3.94.87 15.16 15.16 0 0 0-2.08.79l5.33 3.07 1-.34c1.36-.45 2.63-.83 3.84-1.14a17 17 0 0 1 3.44-.57 11.84 11.84 0 0 1 3.17.21 10.23 10.23 0 0 1 3 1.18 6.23 6.23 0 0 1 2.29 2 2.74 2.74 0 0 1 .34 2.08 4.63 4.63 0 0 1-1.25 2 12.87 12.87 0 0 1-2.43 1.92l3.39 2-1.85 1.06-3.42-2a27.91 27.91 0 0 1-5.08 1.92 33.49 33.49 0 0 1-5.6 1.05l-1.78-3.2a14 14 0 0 0 1.49-.12 20.45 20.45 0 0 0 2.23-.38c.82-.18 1.69-.4 2.6-.66a19.1 19.1 0 0 0 2.6-1l-5.29-3.06-.7.24-.72.22c-1.33.44-2.55.78-3.66 1a16.57 16.57 0 0 1-3.13.42 10.67 10.67 0 0 1-2.75-.26 9.35 9.35 0 0 1-2.56-1 6.46 6.46 0 0 1-2.21-1.9 3.22 3.22 0 0 1-.6-2.05 3.87 3.87 0 0 1 .87-2.07 9.68 9.68 0 0 1 2.16-2l-3.14-1.81 1.85-1.07 3.11 1.8a22.73 22.73 0 0 1 4.57-1.68 33.79 33.79 0 0 1 4.57-.83Zm-9.05 5.58a3.88 3.88 0 0 0 2.31.5 15.39 15.39 0 0 0 3.17-.72l-5-2.87q-2.73 1.79-.48 3.09Zm17.48 1.46a3.92 3.92 0 0 0-2.49-.45 20.15 20.15 0 0 0-3.48.77l5 2.86c2.07-1.29 2.41-2.36.97-3.18Z"/></g><g id="Coin-3" data-name="Coin"><ellipse class="cls-1" cx="437.35" cy="416.22" rx="46.31" ry="26.74"/><ellipse class="cls-2" cx="448.8" cy="409.34" rx="46.31" ry="26.74"/><path class="cls-2" d="M402.51 409.75v-12.19l9.15 8.15-9.15 4.04zm92.61-11.87v11.46l-4.68 4.97-2.29-13.12 6.97-3.31z"/><ellipse class="cls-3" cx="448.8" cy="397.88" rx="46.31" ry="26.74"/><path class="cls-4" d="M481.9 398.71c-.47 4.51-3.68 8.94-9.65 12.39-12.94 7.47-33.94 7.47-46.89 0-6-3.45-9.18-7.88-9.63-12.39-.57-5.27 2.65-10.65 9.63-14.68 12.95-7.48 33.95-7.48 46.89 0 6.98 4.03 10.2 9.41 9.65 14.68Z"/><path class="cls-5" d="M481.9 398.71c-.47 4.51-3.68 8.94-9.65 12.39-12.94 7.47-33.94 7.47-46.89 0-6-3.45-9.18-7.88-9.63-12.39.45-4.5 3.66-8.94 9.63-12.38 12.95-7.49 33.95-7.49 46.89 0 5.97 3.44 9.18 7.88 9.65 12.38Z"/><path class="cls-4" d="M448.32 392.45a7.09 7.09 0 0 0-1.21.1c-.55.07-1.16.18-1.84.32s-1.38.33-2.1.55a14.68 14.68 0 0 0-2.08.79l5.32 3.07 1-.34c1.35-.45 2.63-.83 3.83-1.14a17 17 0 0 1 3.45-.57 12.33 12.33 0 0 1 3.17.21 10.28 10.28 0 0 1 3 1.18 6.14 6.14 0 0 1 2.29 2 2.69 2.69 0 0 1 .34 2.08 4.6 4.6 0 0 1-1.24 2 12.64 12.64 0 0 1-2.44 1.92l3.39 2-1.85 1.06-3.41-2a28.19 28.19 0 0 1-5.08 1.92 33.79 33.79 0 0 1-5.61 1l-1.78-3.2a13.79 13.79 0 0 0 1.49-.12 20.45 20.45 0 0 0 2.23-.38c.82-.17 1.69-.4 2.6-.66a18.76 18.76 0 0 0 2.61-1l-5.3-3.06-.69.24-.73.22c-1.33.44-2.55.78-3.66 1a16.58 16.58 0 0 1-3.12.42 10.32 10.32 0 0 1-2.76-.26 9.17 9.17 0 0 1-2.55-1 6.41 6.41 0 0 1-2.22-1.9 3.22 3.22 0 0 1-.6-2.05 3.81 3.81 0 0 1 .88-2.07 9.4 9.4 0 0 1 2.15-2l-3.14-1.81 1.85-1.07 3.11 1.8a23 23 0 0 1 4.57-1.68 34.07 34.07 0 0 1 4.57-.83Zm-9.05 5.55a3.9 3.9 0 0 0 2.31.5 15.27 15.27 0 0 0 3.17-.71l-5-2.88c-1.81 1.22-1.98 2.25-.48 3.09Zm17.49 1.46a4 4 0 0 0-2.5-.45 20.36 20.36 0 0 0-3.48.77l5 2.86c2.07-1.26 2.41-2.33.98-3.15Z"/><path class="cls-4" d="M445.46 405.51c.05-.13 0-1.8 0-1.8l2 1.31-.88 1.36Zm17.73 1.14v-1.8l-4.41.34 2.53 1.72 1.88-.26zm.37-6.59v-1.82l-3.3 1.2 3.3.62zM449.9 400l1.1-1 3.87 2.67-.24.79s-2.89-1.22-3-1.29Zm-10.12-5.7 5.13 2.91 1-.76s-.64-.74-.69-.81a6.84 6.84 0 0 0-1.6-1.34c-.38-.07-2.81-1.16-2.81-1.16Zm8.54-1.85v-1.8l-2.36-.76-.5 1.41.12.64 2.74.51zm-15.67-1.3v-1.79l2.74.29-.89 1.74-1.85-.24zm.1 6.1v-1.87h3.13l-.76 1.67-1.37 1.49Z"/><path class="cls-6" d="M448.32 390.65a7.09 7.09 0 0 0-1.21.1c-.55.08-1.16.19-1.84.33s-1.38.32-2.1.54a14.68 14.68 0 0 0-2.08.79l5.32 3.08 1-.34c1.35-.45 2.63-.83 3.83-1.15a18.51 18.51 0 0 1 3.45-.57 12.32 12.32 0 0 1 3.17.22 10 10 0 0 1 3 1.18 6 6 0 0 1 2.29 2 2.69 2.69 0 0 1 .34 2.08 4.65 4.65 0 0 1-1.24 2.05 13.46 13.46 0 0 1-2.44 1.92l3.39 2-1.85 1.07-3.41-2a28.19 28.19 0 0 1-5.08 1.92 34.83 34.83 0 0 1-5.61 1l-1.78-3.2a11.16 11.16 0 0 0 1.49-.11c.67-.08 1.41-.2 2.23-.38s1.69-.4 2.6-.67a18.76 18.76 0 0 0 2.61-1l-5.3-3.05-.69.24-.73.22c-1.33.44-2.55.78-3.66 1a16.58 16.58 0 0 1-3.12.42 10.74 10.74 0 0 1-2.76-.26 9.48 9.48 0 0 1-2.55-1 6.52 6.52 0 0 1-2.22-1.9 3.25 3.25 0 0 1-.6-2.06 3.81 3.81 0 0 1 .88-2.07 9.37 9.37 0 0 1 2.15-1.95l-3.14-1.81 1.85-1.07 3.11 1.79a23 23 0 0 1 4.57-1.68 34 34 0 0 1 4.57-.82Zm-9.05 5.58a3.83 3.83 0 0 0 2.31.5 15.27 15.27 0 0 0 3.17-.71l-5-2.88c-1.81 1.2-1.98 2.23-.48 3.09Zm17.49 1.46a4 4 0 0 0-2.5-.44 20.21 20.21 0 0 0-3.48.76l5 2.86q3.13-1.94.98-3.18Z"/></g><g id="Coin-4" data-name="Coin"><ellipse class="cls-2" cx="452.59" cy="395.08" rx="46.31" ry="26.74"/><path class="cls-2" d="M406.29 395.49v-12.18l9.15 8.15-9.15 4.03zm92.61-11.86v11.45l-4.68 4.97-2.29-13.12 6.97-3.3z"/><ellipse class="cls-3" cx="452.59" cy="383.63" rx="46.31" ry="26.74"/><path class="cls-4" d="M485.69 384.45c-.47 4.51-3.68 8.94-9.65 12.39-13 7.47-33.94 7.47-46.89 0-6-3.45-9.18-7.88-9.64-12.39-.56-5.27 2.66-10.65 9.64-14.67 13-7.49 33.94-7.49 46.89 0 6.96 4.02 10.2 9.4 9.65 14.67Z"/><path class="cls-5" d="M485.69 384.45c-.47 4.51-3.68 8.94-9.65 12.39-13 7.47-33.94 7.47-46.89 0-6-3.45-9.18-7.88-9.64-12.39.46-4.5 3.67-8.93 9.64-12.38 13-7.49 33.94-7.49 46.89 0 5.96 3.45 9.18 7.93 9.65 12.38Z"/><path class="cls-4" d="M452.11 378.19a7.19 7.19 0 0 0-1.22.1c-.54.08-1.16.18-1.83.33s-1.38.32-2.11.54a15.16 15.16 0 0 0-2.08.79l5.33 3.05.95-.33c1.36-.45 2.63-.84 3.83-1.15a18.51 18.51 0 0 1 3.45-.57 12.72 12.72 0 0 1 3.17.21 10.1 10.1 0 0 1 3 1.19 6.09 6.09 0 0 1 2.3 2 2.74 2.74 0 0 1 .34 2.08 4.66 4.66 0 0 1-1.25 2.06 13.26 13.26 0 0 1-2.43 1.91l3.38 2-1.84 1.07-3.42-2a27.91 27.91 0 0 1-5.08 1.92 33.68 33.68 0 0 1-5.6 1.05l-1.79-3.2c.33 0 .83 0 1.5-.11s1.41-.21 2.23-.39 1.69-.39 2.6-.66a19.1 19.1 0 0 0 2.6-1l-5.29-3.06c-.23.09-.46.17-.7.24l-.72.23c-1.33.43-2.56.78-3.66 1a17.37 17.37 0 0 1-3.13.41 10.67 10.67 0 0 1-2.75-.25 9.74 9.74 0 0 1-2.56-1 6.59 6.59 0 0 1-2.21-1.91 3.1 3.1 0 0 1-.6-2 3.87 3.87 0 0 1 .87-2.07 9.42 9.42 0 0 1 2.16-2l-3.14-1.82 1.84-1.06 3.11 1.79a23 23 0 0 1 4.57-1.68 34.12 34.12 0 0 1 4.58-.82Zm-9.05 5.58a3.85 3.85 0 0 0 2.3.5 15.27 15.27 0 0 0 3.17-.71l-5-2.88q-2.72 1.8-.47 3.09Zm17.48 1.46a4 4 0 0 0-2.49-.45 20 20 0 0 0-3.48.77l4.95 2.86q3.18-1.93 1.02-3.18Z"/><path class="cls-4" d="M449.24 391.25c.05-.13 0-1.79 0-1.79l2 1.3-.89 1.36Zm17.73 1.14v-1.8l-4.4.34 2.53 1.73 1.87-.27zm.38-6.59v-1.82l-3.3 1.2 3.3.62zm-13.66-.1 1.1-1.05 3.86 2.68-.24.78s-2.88-1.21-3-1.29Zm-10.13-5.7 5.14 3 1.05-.76s-.65-.74-.69-.81a7.09 7.09 0 0 0-1.6-1.34c-.39-.07-2.82-1.16-2.82-1.16Zm8.55-1.81v-1.8l-2.36-.76-.51 1.41.13.64 2.74.51zm-15.67-1.3v-1.79l2.73.29-.88 1.74-1.85-.24zm.1 6.11v-1.87h3.13l-.76 1.67-1.36 1.49Z"/><path class="cls-6" d="M452.11 376.39a8.42 8.42 0 0 0-1.22.1c-.54.08-1.16.19-1.83.33s-1.38.32-2.11.54a16.58 16.58 0 0 0-2.08.79l5.33 3.08.95-.34c1.36-.45 2.63-.83 3.83-1.15a17.67 17.67 0 0 1 3.45-.56 11.84 11.84 0 0 1 3.17.21 10.07 10.07 0 0 1 3 1.18 6 6 0 0 1 2.3 2 2.73 2.73 0 0 1 .34 2.08 4.68 4.68 0 0 1-1.25 2.05 13.29 13.29 0 0 1-2.43 1.92l3.38 1.95-1.84 1.07-3.42-2a27.91 27.91 0 0 1-5.08 1.92 33.68 33.68 0 0 1-5.6 1.05l-1.79-3.2a13.93 13.93 0 0 0 1.5-.12c.66-.08 1.41-.2 2.23-.38s1.69-.4 2.6-.67a17.86 17.86 0 0 0 2.6-1l-5.29-3.05-.7.24-.72.22c-1.33.44-2.56.78-3.66 1a16.57 16.57 0 0 1-3.13.42 10.67 10.67 0 0 1-2.75-.26 9.11 9.11 0 0 1-2.56-1 6.57 6.57 0 0 1-2.21-1.9 3.13 3.13 0 0 1-.6-2.06 3.87 3.87 0 0 1 .87-2.07 9.9 9.9 0 0 1 2.16-1.95l-3.14-1.81 1.84-1.07 3.11 1.8a21.78 21.78 0 0 1 4.57-1.68 32.69 32.69 0 0 1 4.58-.83Zm-9.05 5.61a3.85 3.85 0 0 0 2.3.49 15.27 15.27 0 0 0 3.17-.71l-5-2.88q-2.72 1.78-.47 3.1Zm17.48 1.45a4 4 0 0 0-2.49-.44 19.82 19.82 0 0 0-3.48.76l4.95 2.86q3.18-1.96 1.02-3.2Z"/></g><g id="Coin-5" data-name="Coin"><ellipse class="cls-2" cx="449.75" cy="381.36" rx="46.31" ry="26.74"/><path class="cls-2" d="M403.45 381.76v-12.18l9.15 8.15-9.15 4.03zm92.61-11.86v11.46l-4.68 4.96-2.29-13.12 6.97-3.3z"/><ellipse class="cls-3" cx="449.75" cy="369.9" rx="46.31" ry="26.74"/><path class="cls-4" d="M482.85 370.73c-.47 4.5-3.68 8.94-9.65 12.38-12.95 7.48-33.94 7.48-46.89 0-6-3.44-9.18-7.88-9.64-12.38-.56-5.27 2.66-10.66 9.64-14.68 12.95-7.48 33.94-7.48 46.89 0 6.98 4.02 10.2 9.41 9.65 14.68Z"/><path class="cls-5" d="M482.85 370.73c-.47 4.5-3.68 8.94-9.65 12.38-12.95 7.48-33.94 7.48-46.89 0-6-3.44-9.18-7.88-9.64-12.38.46-4.51 3.67-8.94 9.64-12.39 12.95-7.48 33.94-7.48 46.89 0 5.97 3.45 9.18 7.88 9.65 12.39Z"/><path class="cls-4" d="M449.26 364.46a7.16 7.16 0 0 0-1.21.1c-.54.08-1.16.19-1.83.33s-1.38.32-2.11.54a15.16 15.16 0 0 0-2.08.79l5.33 3.08.95-.34c1.36-.45 2.63-.83 3.83-1.15a18.51 18.51 0 0 1 3.45-.57 12.29 12.29 0 0 1 3.17.22 10.07 10.07 0 0 1 3 1.18 6 6 0 0 1 2.3 2 2.68 2.68 0 0 1 .33 2.08 4.65 4.65 0 0 1-1.24 2.05 13.73 13.73 0 0 1-2.43 1.92l3.38 2-1.85 1.07-3.41-2a27.91 27.91 0 0 1-5.08 1.92 32.84 32.84 0 0 1-5.6 1l-1.79-3.2a11.06 11.06 0 0 0 1.49-.11c.67-.08 1.42-.2 2.24-.38s1.68-.4 2.6-.67a19.1 19.1 0 0 0 2.6-1l-5.3-3.05-.69.24-.72.22c-1.33.44-2.56.78-3.67 1a16.48 16.48 0 0 1-3.12.42 10.67 10.67 0 0 1-2.75-.26 9.41 9.41 0 0 1-2.56-1 6.62 6.62 0 0 1-2.22-1.9 3.25 3.25 0 0 1-.6-2.06 4 4 0 0 1 .88-2.07 9.44 9.44 0 0 1 2.16-1.95l-3.14-1.81 1.84-1.07 3.11 1.79a23 23 0 0 1 4.57-1.68 33.84 33.84 0 0 1 4.58-.82Zm-9.05 5.54a3.83 3.83 0 0 0 2.31.5 15.27 15.27 0 0 0 3.17-.71l-5-2.88c-1.81 1.24-1.97 2.27-.48 3.09Zm17.49 1.46a4 4 0 0 0-2.49-.44 19.82 19.82 0 0 0-3.48.76l4.95 2.86q3.18-1.89 1.02-3.14Z"/><path class="cls-4" d="M446.4 377.52c.05-.13 0-1.79 0-1.79l2 1.31-.88 1.36Zm17.73 1.14v-1.79l-4.4.33 2.53 1.73 1.87-.27zm.37-6.59v-1.81l-3.29 1.19 3.29.62zm-13.65-.07 1.09-1.05 3.87 2.67-.24.79s-2.89-1.22-3-1.29Zm-10.13-5.68 5.14 2.91 1.05-.76s-.65-.74-.7-.82a6.55 6.55 0 0 0-1.59-1.33c-.39-.07-2.82-1.16-2.82-1.16Zm8.54-1.86v-1.79l-2.35-.77-.51 1.41.12.64 2.74.51zm-15.66-1.29v-1.8l2.73.29-.88 1.74-1.85-.23zm.1 6.09v-1.87h3.13l-.76 1.67-1.36 1.5Z"/><path class="cls-6" d="M449.26 362.67a8.07 8.07 0 0 0-1.21.09c-.54.08-1.16.19-1.83.33s-1.38.33-2.11.55a15.16 15.16 0 0 0-2.08.79l5.33 3.07.95-.34c1.36-.45 2.63-.83 3.83-1.14a17 17 0 0 1 3.45-.57 11.87 11.87 0 0 1 3.17.21 10.07 10.07 0 0 1 3 1.18 6.19 6.19 0 0 1 2.3 2 2.69 2.69 0 0 1 .33 2.08 4.6 4.6 0 0 1-1.24 2.05 12.87 12.87 0 0 1-2.43 1.92l3.38 2-1.85 1.06-3.41-2a27.91 27.91 0 0 1-5.08 1.92 33.87 33.87 0 0 1-5.6 1.05l-1.79-3.2a13.6 13.6 0 0 0 1.49-.12 20.59 20.59 0 0 0 2.24-.38c.82-.18 1.68-.4 2.6-.66a19.1 19.1 0 0 0 2.6-1l-5.3-3.06-.69.24-.72.22c-1.33.44-2.56.78-3.67 1a16.48 16.48 0 0 1-3.12.42 10.67 10.67 0 0 1-2.75-.26 9.11 9.11 0 0 1-2.56-1 6.51 6.51 0 0 1-2.22-1.9 3.22 3.22 0 0 1-.6-2.05 3.93 3.93 0 0 1 .88-2.07 9.46 9.46 0 0 1 2.16-2l-3.14-1.81 1.84-1.07 3.11 1.8a23 23 0 0 1 4.57-1.68 33.92 33.92 0 0 1 4.58-.83Zm-9.05 5.58a3.9 3.9 0 0 0 2.31.5 15.39 15.39 0 0 0 3.17-.72l-5-2.87c-1.81 1.19-1.97 2.22-.48 3.09Zm17.49 1.45a4 4 0 0 0-2.49-.44 20.78 20.78 0 0 0-3.48.76l4.95 2.87q3.18-1.95 1.02-3.19Z"/></g><g id="Coin-6" data-name="Coin"><ellipse class="cls-2" cx="453.69" cy="368.12" rx="46.31" ry="26.74"/><path class="cls-2" d="M407.39 368.52v-12.18l9.15 8.15-9.15 4.03zM500 356.66v11.46l-4.68 4.96-2.29-13.12 6.97-3.3z"/><ellipse class="cls-3" cx="453.69" cy="356.66" rx="46.31" ry="26.74"/><path class="cls-4" d="M486.78 357.49c-.47 4.5-3.67 8.93-9.64 12.38-12.95 7.48-33.95 7.48-46.89 0-6-3.45-9.18-7.88-9.64-12.38-.56-5.27 2.66-10.66 9.64-14.68 12.94-7.49 33.94-7.49 46.89 0 6.97 4.02 10.19 9.41 9.64 14.68Z"/><path class="cls-5" d="M486.78 357.49c-.47 4.5-3.67 8.93-9.64 12.38-12.95 7.48-33.95 7.48-46.89 0-6-3.45-9.18-7.88-9.64-12.38.46-4.51 3.67-8.94 9.64-12.39 12.94-7.48 33.94-7.48 46.89 0 5.97 3.45 9.17 7.9 9.64 12.39Z"/><path class="cls-4" d="M453.2 351.22a7.16 7.16 0 0 0-1.21.1q-.83.12-1.83.33c-.68.14-1.38.32-2.11.54a15.16 15.16 0 0 0-2.05.81l5.32 3.08 1-.34c1.35-.45 2.63-.83 3.83-1.15a18.51 18.51 0 0 1 3.45-.57 12.29 12.29 0 0 1 3.17.22 9.81 9.81 0 0 1 3 1.18 6 6 0 0 1 2.3 2 2.68 2.68 0 0 1 .33 2.08 4.65 4.65 0 0 1-1.24 2.05 13.46 13.46 0 0 1-2.44 1.92l3.39 1.95-1.85 1.07-3.41-2a28.19 28.19 0 0 1-5.08 1.92 34.91 34.91 0 0 1-5.6 1l-1.79-3.2a13 13 0 0 0 1.49-.11c.67-.08 1.41-.2 2.24-.38s1.68-.4 2.6-.67a19.1 19.1 0 0 0 2.6-1l-5.3-3-.69.24-.72.22c-1.34.44-2.56.78-3.67 1a16.48 16.48 0 0 1-3.12.42 10.74 10.74 0 0 1-2.76-.26 9.48 9.48 0 0 1-2.55-1 6.52 6.52 0 0 1-2.22-1.9 3.25 3.25 0 0 1-.6-2.06 3.89 3.89 0 0 1 .88-2.07 9.44 9.44 0 0 1 2.16-1.95l-3.14-1.81 1.84-1.07 3.11 1.79a23 23 0 0 1 4.57-1.68 34 34 0 0 1 4.57-.82Zm-9.05 5.58a3.83 3.83 0 0 0 2.31.5 15.27 15.27 0 0 0 3.17-.71l-5-2.88c-1.81 1.2-1.97 2.23-.48 3.09Zm17.49 1.46a4 4 0 0 0-2.5-.44 19.93 19.93 0 0 0-3.47.76l4.95 2.86c2.12-1.29 2.45-2.35 1.02-3.18Z"/><path class="cls-4" d="M450.34 364.28c.05-.13 0-1.79 0-1.79l2 1.31-.88 1.36Zm17.73 1.14v-1.79l-4.4.33 2.53 1.73 1.87-.27zm.37-6.59v-1.81l-3.29 1.19 3.29.62zm-13.65-.1 1.09-1.05 3.87 2.68-.24.79s-2.89-1.22-3-1.29Zm-10.13-5.65 5.14 2.92 1.05-.76s-.65-.74-.7-.82a6.43 6.43 0 0 0-1.6-1.33c-.38-.07-2.81-1.17-2.81-1.17Zm8.54-1.86v-1.79l-2.35-.77-.51 1.41.12.64 2.74.51zm-15.66-1.29v-1.8l2.73.29-.88 1.74-1.85-.23zm.1 6.07v-1.87h3.13l-.76 1.67-1.36 1.5Z"/><path class="cls-6" d="M453.2 349.43a8.07 8.07 0 0 0-1.21.09q-.83.12-1.83.33c-.68.15-1.38.33-2.11.54a15.19 15.19 0 0 0-2.08.8l5.32 3.07 1-.34c1.35-.45 2.63-.83 3.83-1.14a17 17 0 0 1 3.45-.57 11.87 11.87 0 0 1 3.17.21 10.07 10.07 0 0 1 3 1.18 6.1 6.1 0 0 1 2.3 2 2.69 2.69 0 0 1 .33 2.08 4.6 4.6 0 0 1-1.24 2.05 12.64 12.64 0 0 1-2.44 1.92l3.39 2-1.85 1.06-3.41-2a28.19 28.19 0 0 1-5.08 1.92 33.87 33.87 0 0 1-5.6 1.05l-1.79-3.2a13.6 13.6 0 0 0 1.49-.12 21 21 0 0 0 2.24-.38c.82-.18 1.68-.4 2.6-.66a19.1 19.1 0 0 0 2.6-1L454 357.3l-.69.24-.72.22c-1.34.44-2.56.78-3.67 1a16.48 16.48 0 0 1-3.12.42 10.74 10.74 0 0 1-2.8-.18 9.17 9.17 0 0 1-2.55-1 6.41 6.41 0 0 1-2.22-1.9 3.24 3.24 0 0 1-.6-2 3.82 3.82 0 0 1 .88-2.07 9.46 9.46 0 0 1 2.16-2l-3.14-1.81 1.84-1.07 3.11 1.8a23 23 0 0 1 4.57-1.68 34.07 34.07 0 0 1 4.57-.83Zm-9.05 5.57a3.82 3.82 0 0 0 2.31.49 14.65 14.65 0 0 0 3.17-.71l-5-2.88c-1.81 1.21-1.97 2.24-.48 3.1Zm17.49 1.45a4 4 0 0 0-2.5-.44 20.9 20.9 0 0 0-3.47.76l4.95 2.87c2.12-1.29 2.45-2.35 1.02-3.18Z"/></g><g id="Coin-7" data-name="Coin"><ellipse class="cls-2" cx="450.85" cy="354.39" rx="46.31" ry="26.74"/><path class="cls-2" d="M404.55 354.8v-12.19l9.15 8.15-9.15 4.04zm92.61-11.87v11.46l-4.68 4.97-2.29-13.12 6.97-3.31z"/><ellipse class="cls-3" cx="450.85" cy="342.93" rx="46.31" ry="26.74"/><path class="cls-4" d="M483.94 343.76c-.47 4.5-3.67 8.94-9.64 12.39-12.95 7.47-33.95 7.47-46.9 0-6-3.45-9.17-7.89-9.63-12.39-.56-5.27 2.66-10.66 9.63-14.68 13-7.48 34-7.48 46.9 0 6.97 4.02 10.19 9.41 9.64 14.68Z"/><path class="cls-5" d="M483.94 343.76c-.47 4.5-3.67 8.94-9.64 12.39-12.95 7.47-33.95 7.47-46.9 0-6-3.45-9.17-7.89-9.63-12.39.46-4.5 3.66-8.94 9.63-12.39 13-7.48 34-7.48 46.9 0 5.97 3.45 9.17 7.89 9.64 12.39Z"/><path class="cls-4" d="M450.36 337.5a6.91 6.91 0 0 0-1.21.09q-.82.12-1.83.33c-.68.14-1.38.33-2.11.54a16.58 16.58 0 0 0-2.08.79l5.32 3.08 1-.34c1.35-.45 2.63-.83 3.83-1.14a17 17 0 0 1 3.45-.57 11.87 11.87 0 0 1 3.17.21 10.17 10.17 0 0 1 3 1.18 6.06 6.06 0 0 1 2.29 2 2.69 2.69 0 0 1 .34 2.08 4.6 4.6 0 0 1-1.24 2.05 12.64 12.64 0 0 1-2.44 1.92l3.39 1.95-1.85 1.07-3.41-2a28.19 28.19 0 0 1-5.08 1.92 33.87 33.87 0 0 1-5.6 1.05l-1.79-3.2a13.6 13.6 0 0 0 1.49-.12 20.45 20.45 0 0 0 2.23-.38c.83-.18 1.69-.4 2.61-.67a17.86 17.86 0 0 0 2.6-1l-5.3-3.05-.69.24-.72.22c-1.34.44-2.56.78-3.67 1a16.58 16.58 0 0 1-3.12.42 10.74 10.74 0 0 1-2.76-.26 9.17 9.17 0 0 1-2.55-1 6.52 6.52 0 0 1-2.22-1.9 3.24 3.24 0 0 1-.6-2 3.82 3.82 0 0 1 .88-2.07 9.4 9.4 0 0 1 2.15-2l-3.14-1.81 1.85-1.07 3.11 1.8a21.78 21.78 0 0 1 4.57-1.68 32.56 32.56 0 0 1 4.57-.83Zm-9.05 5.58a3.89 3.89 0 0 0 2.31.49 14.65 14.65 0 0 0 3.17-.71l-5-2.88c-1.79 1.2-1.98 2.23-.48 3.1Zm17.49 1.45a4 4 0 0 0-2.5-.44 20.9 20.9 0 0 0-3.47.76l4.95 2.86q3.17-1.93 1.02-3.18Z"/><path class="cls-4" d="M447.5 350.56c.05-.13 0-1.8 0-1.8l2 1.31-.88 1.36Zm17.73 1.13v-1.79l-4.41.34 2.54 1.72 1.87-.27zm.37-6.59v-1.81l-3.29 1.19 3.29.62zm-13.66-.1 1.06-1 3.87 2.67-.24.79s-2.89-1.22-3-1.29Zm-10.12-5.65 5.13 2.91 1.06-.76s-.65-.74-.7-.81a6.44 6.44 0 0 0-1.6-1.34c-.38-.07-2.81-1.16-2.81-1.16Zm8.54-1.85v-1.8l-2.36-.77-.5 1.41.12.65 2.74.51zm-15.67-1.3v-1.8l2.74.29-.88 1.75-1.86-.24zm.11 6.09v-1.87h3.13l-.76 1.68-1.36 1.49Z"/><path class="cls-6" d="M450.36 335.7a7.16 7.16 0 0 0-1.21.1q-.82.1-1.83.33c-.68.14-1.38.32-2.11.54a15.16 15.16 0 0 0-2.08.79l5.32 3.07 1-.33c1.35-.45 2.63-.84 3.83-1.15a18.51 18.51 0 0 1 3.45-.57 12.76 12.76 0 0 1 3.17.21 10.21 10.21 0 0 1 3 1.19 6 6 0 0 1 2.29 2 2.7 2.7 0 0 1 .34 2.08 4.55 4.55 0 0 1-1.24 2 12.64 12.64 0 0 1-2.44 1.92l3.39 2-1.86 1.12-3.38-2a28.19 28.19 0 0 1-5.08 1.92 33.87 33.87 0 0 1-5.6 1l-1.79-3.2c.33 0 .83 0 1.49-.11s1.41-.21 2.23-.39 1.69-.4 2.61-.66a19.1 19.1 0 0 0 2.6-1l-5.3-3.06a7 7 0 0 1-.69.24l-.72.22c-1.34.44-2.56.79-3.67 1a17.38 17.38 0 0 1-3.12.41 10.75 10.75 0 0 1-2.76-.25 9.52 9.52 0 0 1-2.55-1 6.41 6.41 0 0 1-2.22-1.9 3.22 3.22 0 0 1-.6-2.05 3.89 3.89 0 0 1 .88-2.07 9.15 9.15 0 0 1 2.15-1.95l-3.14-1.82 1.85-1.06 3.11 1.79a23 23 0 0 1 4.57-1.68 32.48 32.48 0 0 1 4.57-.82Zm-9.05 5.58a3.9 3.9 0 0 0 2.31.5 15.27 15.27 0 0 0 3.17-.71l-5-2.88c-1.79 1.19-1.98 2.23-.48 3.09Zm17.49 1.46a4 4 0 0 0-2.5-.45 20.07 20.07 0 0 0-3.47.77l4.95 2.86q3.17-1.92 1.02-3.18Z"/></g><g id="Coin-8" data-name="Coin"><ellipse class="cls-1" cx="46.31" cy="380.77" rx="46.31" ry="26.74"/><ellipse class="cls-2" cx="50.95" cy="377.33" rx="46.31" ry="26.74"/><path class="cls-2" d="M4.66 377.74v-12.19l9.15 8.15-9.15 4.04zm92.61-11.87v11.46l-4.68 4.97-2.29-13.12 6.97-3.31z"/><ellipse class="cls-3" cx="50.95" cy="365.87" rx="46.31" ry="26.74"/><path class="cls-4" d="M84.05 366.7c-.47 4.5-3.68 8.94-9.65 12.39-13 7.47-33.94 7.47-46.89 0-6-3.45-9.18-7.89-9.64-12.39-.56-5.27 2.66-10.66 9.64-14.68 13-7.48 33.94-7.48 46.89 0 6.98 3.98 10.2 9.41 9.65 14.68Z"/><path class="cls-5" d="M84.05 366.7c-.47 4.5-3.68 8.94-9.65 12.39-13 7.47-33.94 7.47-46.89 0-6-3.45-9.18-7.89-9.64-12.39.46-4.5 3.67-8.94 9.64-12.39 13-7.48 33.94-7.48 46.89 0 5.97 3.45 9.18 7.89 9.65 12.39Z"/><path class="cls-4" d="M50.47 360.44a7 7 0 0 0-1.22.09q-.81.12-1.83.33c-.67.14-1.38.33-2.11.54a14.57 14.57 0 0 0-2.07.8l5.32 3.07.95-.34q2-.68 3.84-1.14a17 17 0 0 1 3.44-.57 11.94 11.94 0 0 1 3.18.21 10.28 10.28 0 0 1 3 1.18 6.06 6.06 0 0 1 2.29 2 2.74 2.74 0 0 1 .34 2.08 4.63 4.63 0 0 1-1.25 2.05 12.87 12.87 0 0 1-2.35 1.94l3.39 2-1.85 1.06-3.42-2a27.91 27.91 0 0 1-5.12 1.91 33.49 33.49 0 0 1-5.6 1.05l-1.78-3.2a14 14 0 0 0 1.49-.12 20.45 20.45 0 0 0 2.23-.38c.82-.18 1.69-.4 2.6-.67a18.6 18.6 0 0 0 2.6-1l-5.29-3.06-.69.24-.73.22c-1.33.44-2.55.78-3.66 1a16.58 16.58 0 0 1-3.12.42 10.7 10.7 0 0 1-2.76-.26 9.17 9.17 0 0 1-2.55-1 6.52 6.52 0 0 1-2.22-1.9 3.24 3.24 0 0 1-.6-2 3.75 3.75 0 0 1 .88-2.07 9.4 9.4 0 0 1 2.15-2l-3.14-1.81 1.85-1.07 3.11 1.8a21.58 21.58 0 0 1 4.57-1.68 33.79 33.79 0 0 1 4.57-.83Zm-9 5.58a3.82 3.82 0 0 0 2.31.49 14.65 14.65 0 0 0 3.17-.71l-5-2.88c-1.86 1.2-2.03 2.23-.53 3.08Zm17.48 1.45a4 4 0 0 0-2.49-.44 21 21 0 0 0-3.48.76l5 2.86q3.08-1.93.92-3.18Z"/><path class="cls-4" d="M47.61 373.5v-1.8l2 1.31-.88 1.36Zm17.73 1.13v-1.79l-4.41.34 2.53 1.72 1.88-.27zm.37-6.59v-1.81l-3.3 1.19 3.3.62zM52.05 368l1.1-1.05 3.85 2.62-.24.79s-2.89-1.22-3-1.29L52.05 368Zm-10.12-5.71 5.13 2.91 1-.76s-.64-.74-.69-.81a6.84 6.84 0 0 0-1.6-1.34c-.38-.07-2.82-1.16-2.82-1.16Zm8.54-1.85v-1.8l-2.36-.77-.5 1.41.12.65 2.74.51zm-15.67-1.3v-1.8l2.74.29-.89 1.75-1.85-.24zm.1 6.09v-1.87H38l-.73 1.64-1.36 1.49Z"/><path class="cls-6" d="M50.47 358.64a7.26 7.26 0 0 0-1.22.1c-.54.08-1.15.18-1.83.33s-1.38.32-2.11.54a14.55 14.55 0 0 0-2.07.79l5.32 3.07.95-.33c1.36-.45 2.64-.84 3.84-1.15a18.55 18.55 0 0 1 3.44-.57 12.84 12.84 0 0 1 3.18.21 10.31 10.31 0 0 1 3 1.19 6 6 0 0 1 2.29 2 2.74 2.74 0 0 1 .34 2.08 4.66 4.66 0 0 1-1.22 2.1 13.26 13.26 0 0 1-2.38 1.88l3.39 2-1.85 1.07-3.42-2a27.91 27.91 0 0 1-5.12 1.9 33.49 33.49 0 0 1-5.6 1l-1.78-3.2c.32 0 .82 0 1.49-.11s1.41-.21 2.23-.39 1.69-.39 2.6-.66a18.62 18.62 0 0 0 2.6-1l-5.29-3.06q-.35.14-.69.24l-.73.23c-1.33.43-2.55.78-3.66 1a16.53 16.53 0 0 1-3.12.41 10.71 10.71 0 0 1-2.76-.25 9.82 9.82 0 0 1-2.55-1 6.53 6.53 0 0 1-2.22-1.91 3.22 3.22 0 0 1-.6-2.05 3.81 3.81 0 0 1 .88-2.07 9.15 9.15 0 0 1 2.15-1.95l-3.14-1.82 1.85-1.06 3.11 1.79a22.73 22.73 0 0 1 4.57-1.68 33.71 33.71 0 0 1 4.57-.82Zm-9 5.58a3.9 3.9 0 0 0 2.31.5 15.27 15.27 0 0 0 3.12-.72l-5-2.88c-1.81 1.21-1.98 2.24-.48 3.1Zm17.48 1.46a4 4 0 0 0-2.49-.45 21.14 21.14 0 0 0-3.48.77l5 2.86q3.08-1.94.92-3.18Z"/></g><path d="m125.17 301.28-1.46-1.74c-29.24-34.79-31.79-66.31-7.8-96.36 20.43-25.58 56.49-45.62 88.31-63.3 6.71-3.73 13-7.25 19.06-10.72l6.82-4 6.83 4c36.89 21.29 75.6 31.38 121.84 31.76l9.39.07.13 5.42c.65 26.7 18.13 49.06 55 70.35l6.83 3.94-6.83 3.94c-6 3.48-12.11 7.14-18.57 11-30.62 18.38-65.34 39.2-109.64 51-52.05 13.85-106.65 12.38-166.92-4.5Zm105-160.39c-4.06 2.29-8.24 4.61-12.57 7-63.33 35.2-135 75.05-78 145 121.2 33 190.24-8.45 251.2-45 4.2-2.48 8.2-4.89 12.2-7.23-33.82-20.89-51.05-43-53.66-68.79-44.72-1.5-82.98-11.45-119.16-30.98Z" style="opacity:.4;fill:#d6d8e5"/><path class="cls-8" d="m136.35 294.57-1.46-1.73c-29.24-34.8-31.79-66.32-7.8-96.37 20.43-25.58 56.5-45.62 88.31-63.3 6.71-3.73 13-7.25 19.06-10.72l6.83-3.94 6.82 3.94c36.89 21.29 75.6 31.38 121.89 31.76l9.39.07.13 5.42c.65 26.7 18.13 49.06 55 70.35l6.83 3.94-6.83 3.95c-6 3.47-12.11 7.13-18.56 11-30.63 18.37-65.34 39.19-109.65 51-52 13.86-106.65 12.38-166.92-4.5Zm105-160.39c-4.06 2.29-8.24 4.61-12.56 7-63.34 35.2-135 75.05-78 145 121.19 33 190.23-8.45 251.19-45 4.17-2.49 8.19-4.91 12.15-7.25-33.81-20.89-51.05-43-53.66-68.79-44.67-1.48-82.93-11.43-119.11-30.96Z"/><path class="cls-8" d="M136.35 294.57v-15.65l218.44-63.22 86.09 2.24.44 16.05-113.37 51.83-70.72 17.71-97.83-7.75-23.05-1.21zm-25.51-56.78v-14.7l7.84 10.78-7.84 3.92z"/><path d="M427.66 218.34c-38.6-22.29-57.15-45.73-57.84-74.21-49.33-.4-89.93-11.11-128.53-33.39-63.33 36.56-167.16 81.37-97.71 164 143.14 40.11 220.75-19.84 284.08-56.4Z" style="fill:#525bff"/><path d="m136.35 278.92-1.46-1.74c-29.24-34.79-31.79-66.31-7.8-96.36 20.43-25.58 56.5-45.62 88.31-63.31 6.71-3.72 13-7.24 19.06-10.72l6.83-3.94 6.82 3.94c36.89 21.3 75.6 31.39 121.84 31.76l9.39.08.13 5.42c.65 26.7 18.13 49 55 70.35l6.83 3.94-6.83 3.94c-6 3.48-12.11 7.13-18.56 11-30.63 18.37-65.34 39.2-109.65 51-52 13.85-106.65 12.38-166.92-4.51Zm105-160.39c-4.06 2.29-8.24 4.61-12.56 7-63.34 35.19-135 75.05-78 145 121.19 32.95 190.23-8.45 251.19-45 4.17-2.5 8.19-4.91 12.15-7.25-33.81-20.89-51.05-43-53.66-68.79-44.67-1.49-82.93-11.44-119.11-30.96Z" style="fill:#97a6ff"/><ellipse cx="264.9" cy="203.4" rx="40.58" ry="23.43" style="opacity:.1"/><path class="cls-5" d="m294.2 144-41.95-24.22c-3.11-1.8-5.63-6.61-5.63-10.75v-28.5c0-4.14 2.52-6 5.63-4.25l41.95 24.22c3.11 1.8 5.63 6.61 5.63 10.75v28.5c0 4.14-2.52 6.04-5.63 4.25Z"/><path class="cls-5" d="m279.37 155.36 18.74-11.21-11.36-25.77-17.64 8.72 10.26 28.26zm-48.88-68.53 18.49-11.03 4.63 34.34-23.12-23.31z"/><path class="cls-3" d="m275.82 155-42-24.22c-3.11-1.79-5.62-6.6-5.62-10.74V91.52c0-4.14 2.51-6 5.62-4.25l42 24.23c3.1 1.79 5.62 6.6 5.62 10.74v28.5c0 4.14-2.52 6.05-5.62 4.26Z"/><path d="M251.12 86.44V64.79c0-8.79 6.17-12.35 13.78-8 7.61 4.39 13.78 15.08 13.78 23.86v21.65" style="fill:none;stroke:#cc8b09;stroke-miterlimit:10;stroke-width:10.46px"/><ellipse class="cls-4" cx="250.93" cy="86.59" rx="6.11" ry="3.53"/><ellipse class="cls-4" cx="278.68" cy="101.33" rx="6.11" ry="3.53"/></g></g></svg>