<svg xmlns="http://www.w3.org/2000/svg" viewBox="0 0 418.66 500"><defs><style>.cls-1{fill:#d6d8e5;opacity:.3}.cls-2{fill:#b1b4c4}.cls-5{fill:#2b303f}.cls-9{fill:#dd990e}.cls-10{fill:#f9cb07}.cls-11{fill:#cc8b09}.cls-12{fill:#e8a30a}.cls-13{fill:#f9ca06}.cls-15,.cls-17{fill:#dadce5}.cls-17{opacity:.5}</style></defs><g id="Слой_2" data-name="Слой 2"><g id="Слой_1-2" data-name="Слой 1"><path class="cls-1" d="m359.65 437.83-150.27-89.31 21.82-12.61 150.27 89.32-21.82 12.6z"/><path class="cls-2" d="M359.37 415.71 249.8 352.45c-9.28-5.36-16.81-19.73-16.81-32.11V14.72C233 2.35 240.52-3.34 249.8 2l109.57 63.28c9.28 5.35 16.8 19.73 16.8 32.1V403c0 12.38-7.52 18.07-16.8 12.71Z"/><path class="cls-2" d="m361.24 421.22 8.69-4.39-8.33-14.27-.36 18.66zM231.29 5.07l7.99-4.19-1.61 11.77-6.38-7.58z"/><path d="M352.38 419.2 242.81 356c-9.28-5.36-16.8-19.74-16.8-32.11V18.21c0-12.37 7.52-18.06 16.8-12.7l109.57 63.26c9.28 5.36 16.8 19.73 16.8 32.11V406.5c0 12.38-7.52 18.06-16.8 12.7Z" style="fill:#616e84"/><path d="M368 101.66v305.61c0 12.39-7.52 18.06-16.8 12.71l-43-24.8-13.35-7.72-53.24-30.73c-9.28-5.37-16.8-19.74-16.8-32.12V19c0-12.39 7.52-18.07 16.8-12.72l109.61 63.26C360.5 74.91 368 89.27 368 101.66Z" style="fill:#20232d"/><path class="cls-5" d="M360.11 98.56v297.65c0 7.5-5.25 10.55-11.75 6.79l-34.26-19.78-3-1.74-1-.59-7.4-4.27-21.43-12.36-8.88-5.13-3.58-2.07L244.5 343c-6.49-3.75-11.76-12.87-11.76-20.37V25c0-7.5 5.27-10.53 11.76-6.79l42.77 24.7V43c0 5.83 4.11 12.93 9.16 15.85s9.16.56 9.16-5.28v-.14l42.78 24.71c6.49 3.78 11.74 12.91 11.74 20.42Z"/><path d="M342.16 168.54 251.11 116a8.19 8.19 0 0 1-3.41-6.52V46.17c0-2.52 1.53-3.67 3.41-2.58l91.05 52.56a8.19 8.19 0 0 1 3.41 6.52V166c0 2.47-1.57 3.63-3.41 2.54Zm2.04 28.98-95.14-54.93a3.26 3.26 0 0 1-1.36-2.59v-8.75c0-1 .61-1.47 1.36-1l95.14 54.93a3.25 3.25 0 0 1 1.37 2.61v8.75c0 .96-.57 1.46-1.37.98Zm-14.45 12.23-80.69-46.58a3.29 3.29 0 0 1-1.36-2.61v-8.76c0-1 .61-1.46 1.36-1l80.69 46.59a3.25 3.25 0 0 1 1.37 2.61v8.75c0 .97-.61 1.44-1.37 1ZM317 222.93l-67.89-39.19a3.26 3.26 0 0 1-1.36-2.61v-8.75c0-1 .61-1.47 1.36-1L317 210.54a3.26 3.26 0 0 1 1.36 2.61v8.75c-.05 1.01-.66 1.47-1.36 1.03ZM342.61 341l-95.14-54.93a3.26 3.26 0 0 1-1.37-2.61v-8.75c0-1 .61-1.47 1.37-1l95.14 54.93a3.27 3.27 0 0 1 1.37 2.61V340c.02 1-.61 1.44-1.37 1Zm-14.45 12.23-80.69-46.59a3.24 3.24 0 0 1-1.37-2.6v-8.76c0-1 .61-1.47 1.37-1l80.69 46.58a3.29 3.29 0 0 1 1.36 2.61v8.76c0 .97-.61 1.44-1.36 1Zm-12.81 13.18-67.88-39.19a3.26 3.26 0 0 1-1.37-2.61v-8.75c0-1 .61-1.47 1.37-1L315.35 354a3.25 3.25 0 0 1 1.37 2.61v8.75c0 1.03-.61 1.49-1.37 1.05Zm44.76-260.35v72.58l-3.49-1.93a8.24 8.24 0 0 1-3.42-6.54V106.9c0-2.52 1.54-3.68 3.42-2.58Zm-104.9 155.52-6.83-3.94A3.3 3.3 0 0 1 247 255v-32.73c0-1 .62-1.47 1.37-1l6.83 4a3.26 3.26 0 0 1 1.36 2.6v32.77c.01.91-.56 1.36-1.35.94Zm14.79 8.56-6.83-3.94a3.26 3.26 0 0 1-1.36-2.61V223c0-1 .61-1.47 1.36-1l6.83 3.94a3.29 3.29 0 0 1 1.37 2.61v40.58c.04.99-.58 1.45-1.37 1.01Zm14.87 8.57-6.87-3.95a3.26 3.26 0 0 1-1.36-2.6V243.4c0-1 .61-1.47 1.36-1l6.83 3.94a3.26 3.26 0 0 1 1.37 2.61v28.75c.04.98-.57 1.44-1.33 1.01Zm14.84 8.56-6.83-3.94a3.27 3.27 0 0 1-1.37-2.61v-48.07c0-1 .61-1.47 1.37-1l6.83 3.95a3.26 3.26 0 0 1 1.36 2.61v48.07c0 .96-.61 1.43-1.36.99Zm14.83 8.56-6.83-3.94a3.27 3.27 0 0 1-1.37-2.61V248.7c0-1 .62-1.47 1.37-1l6.83 3.94a3.28 3.28 0 0 1 1.36 2.61v40.55c0 1.01-.61 1.47-1.36 1.03ZM344.2 313l-6.82-4a3.26 3.26 0 0 1-1.37-2.61v-40.56c0-1 .61-1.47 1.37-1l6.82 3.94a3.25 3.25 0 0 1 1.37 2.61v40.58c0 .98-.57 1.44-1.37 1.04Zm-14.83-8.6-6.83-3.94a3.29 3.29 0 0 1-1.36-2.61v-55.57c0-1 .61-1.46 1.36-1l6.83 3.94a3.27 3.27 0 0 1 1.37 2.61v55.57c0 .97-.61 1.43-1.37 1Z" style="fill:#353c4c"/><ellipse class="cls-5" cx="296.43" cy="51.56" rx="2.84" ry="4.91" transform="rotate(-30 296.447 51.553)"/><path d="M296.43 53.24a3.22 3.22 0 0 1-1.43-2.52c0-.93.66-1.3 1.46-.84a3.24 3.24 0 0 1 1.46 2.52c-.03.93-.69 1.31-1.49.84Z" style="fill:#fff;opacity:.1"/><path d="M372.46 141.87c-.89.52-1.62 0-1.62-1.22v-13a3.89 3.89 0 0 1 1.62-3.09c.89-.51 1.62 0 1.62 1.23v13a3.89 3.89 0 0 1-1.62 3.08Zm0 21.35c-.89.52-1.62 0-1.62-1.22v-13a3.89 3.89 0 0 1 1.62-3.09c.89-.51 1.62 0 1.62 1.23v13a3.89 3.89 0 0 1-1.62 3.08Z" style="fill:#757b89"/><ellipse class="cls-1" cx="146.98" cy="285.38" rx="48.83" ry="28.19"/><g id="Coin"><ellipse class="cls-9" cx="151.86" cy="278.03" rx="48.83" ry="28.19"/><path class="cls-9" d="M103.04 278.46v-12.84l9.65 8.59-9.65 4.25zm97.65-12.51v12.08l-4.93 5.24-2.42-13.83 7.35-3.49z"/><ellipse class="cls-10" cx="151.86" cy="265.95" rx="48.83" ry="28.19"/><path class="cls-11" d="M186.76 266.83c-.5 4.74-3.88 9.42-10.18 13.06-13.65 7.88-35.79 7.88-49.44 0-6.29-3.64-9.68-8.32-10.16-13.06-.59-5.56 2.8-11.24 10.16-15.48 13.65-7.89 35.79-7.89 49.44 0 7.36 4.24 10.76 9.92 10.18 15.48Z"/><path class="cls-12" d="M186.76 266.83c-.5 4.74-3.88 9.42-10.18 13.06-13.65 7.88-35.79 7.88-49.44 0-6.29-3.64-9.68-8.32-10.16-13.06.48-4.75 3.87-9.43 10.16-13.07 13.65-7.89 35.79-7.89 49.44 0 6.3 3.64 9.68 8.32 10.18 13.07Z"/><path class="cls-11" d="M151.35 260.22a8 8 0 0 0-1.28.1c-.58.09-1.22.2-1.93.35s-1.46.34-2.23.57a15.05 15.05 0 0 0-2.19.84l5.62 3.24 1-.36c1.43-.47 2.78-.88 4-1.21a19 19 0 0 1 3.64-.6 12.7 12.7 0 0 1 3.34.23 10.75 10.75 0 0 1 3.2 1.24 6.43 6.43 0 0 1 2.42 2.13 2.83 2.83 0 0 1 .35 2.19 4.85 4.85 0 0 1-1.31 2.17 13.77 13.77 0 0 1-2.57 2l3.57 2.06-1.94 1.13-3.6-2.08a30 30 0 0 1-5.36 2 35.35 35.35 0 0 1-5.91 1.11l-1.84-3.33a15.13 15.13 0 0 0 1.57-.12 23.32 23.32 0 0 0 2.36-.4c.86-.19 1.78-.42 2.74-.7a19.36 19.36 0 0 0 2.74-1l-5.58-3.23-.73.26-.76.23c-1.41.46-2.7.82-3.87 1.09a17.44 17.44 0 0 1-3.29.44 11.3 11.3 0 0 1-2.9-.27 10.27 10.27 0 0 1-2.7-1.09 6.93 6.93 0 0 1-2.34-2 3.43 3.43 0 0 1-.63-2.16 4 4 0 0 1 .93-2.18 9.8 9.8 0 0 1 2.27-2.07l-3.31-1.91 1.95-1.12 3.27 1.89a24.21 24.21 0 0 1 4.82-1.77 34.9 34.9 0 0 1 4.82-.87Zm-9.54 5.89a4.11 4.11 0 0 0 2.43.52 16.59 16.59 0 0 0 3.34-.75l-5.25-3c-1.93 1.23-2.1 2.31-.52 3.23Zm18.43 1.53a4.25 4.25 0 0 0-2.63-.47 21.73 21.73 0 0 0-3.61.83l5.22 3c2.18-1.37 2.54-2.48 1.02-3.36Z"/><path class="cls-11" d="M148.33 274v-1.89l2.14 1.38-.93 1.43Zm18.7 1.19v-1.89l-4.65.35 2.67 1.82 1.98-.28zm.39-6.95v-1.91l-3.48 1.26 3.48.65zm-14.42-.1 1.15-1.11 4.08 2.82-.25.83s-3.05-1.28-3.15-1.35-1.83-1.19-1.83-1.19Zm-10.66-5.96 5.42 3.06 1.1-.8s-.68-.78-.73-.85a6.88 6.88 0 0 0-1.68-1.41c-.41-.08-3-1.23-3-1.23Zm9.01-1.96v-1.89l-2.49-.81-.53 1.48.13.68 2.89.54zm-16.52-1.37v-1.89l2.88.31-.93 1.84-1.95-.26zm.1 6.43v-2h3.3l-.81 1.76-1.42 1.61Z"/><path class="cls-13" d="M151.35 258.33a8 8 0 0 0-1.28.1c-.58.08-1.22.2-1.93.35s-1.46.34-2.23.57a16.27 16.27 0 0 0-2.19.83l5.62 3.24 1-.35c1.43-.48 2.78-.88 4-1.21a19 19 0 0 1 3.64-.6 13.14 13.14 0 0 1 3.34.22 10.78 10.78 0 0 1 3.2 1.25 6.43 6.43 0 0 1 2.42 2.13 2.83 2.83 0 0 1 .35 2.19 4.82 4.82 0 0 1-1.31 2.16 13.39 13.39 0 0 1-2.57 2l3.59 2.09-1.94 1.12-3.6-2.08a29.24 29.24 0 0 1-5.36 2 35.33 35.33 0 0 1-5.91 1.1l-1.88-3.37a15.13 15.13 0 0 0 1.57-.12c.71-.08 1.49-.22 2.36-.4s1.78-.43 2.74-.71a19.36 19.36 0 0 0 2.74-1l-5.58-3.22-.73.25-.76.24q-2.11.69-3.87 1.08a16.66 16.66 0 0 1-3.29.44 11.3 11.3 0 0 1-2.9-.27 9.63 9.63 0 0 1-2.7-1.09 6.92 6.92 0 0 1-2.34-2 3.43 3.43 0 0 1-.63-2.16 4.06 4.06 0 0 1 .93-2.19 10 10 0 0 1 2.27-2.06l-3.29-1.86 1.95-1.13 3.27 1.9a24.21 24.21 0 0 1 4.82-1.77 34.9 34.9 0 0 1 4.82-.87Zm-9.54 5.88a4 4 0 0 0 2.43.53 16.59 16.59 0 0 0 3.34-.75l-5.25-3q-2.89 1.85-.52 3.22Zm18.43 1.54a4.18 4.18 0 0 0-2.63-.47 20.78 20.78 0 0 0-3.66.81l5.22 3q3.35-2.03 1.07-3.34Z"/></g><g id="Coin-2" data-name="Coin"><ellipse class="cls-9" cx="151.86" cy="262.22" rx="48.83" ry="28.19"/><path class="cls-9" d="M103.04 262.64V249.8l9.65 8.59-9.65 4.25zm97.65-12.5v12.08l-4.93 5.23-2.42-13.83 7.35-3.48z"/><ellipse class="cls-10" cx="151.86" cy="250.14" rx="48.83" ry="28.19"/><path class="cls-11" d="M186.76 251c-.5 4.75-3.88 9.42-10.18 13.06-13.65 7.88-35.79 7.88-49.44 0-6.29-3.64-9.68-8.31-10.16-13.06-.59-5.56 2.8-11.24 10.16-15.48 13.65-7.89 35.79-7.89 49.44 0 7.36 4.25 10.76 9.93 10.18 15.48Z"/><path class="cls-12" d="M186.76 251c-.5 4.75-3.88 9.42-10.18 13.06-13.65 7.88-35.79 7.88-49.44 0-6.29-3.64-9.68-8.31-10.16-13.06.48-4.75 3.87-9.42 10.16-13.06 13.65-7.89 35.79-7.89 49.44 0 6.3 3.65 9.68 8.32 10.18 13.06Z"/><path class="cls-11" d="M151.35 244.4a8.24 8.24 0 0 0-1.28.11c-.58.08-1.22.19-1.93.34s-1.46.35-2.23.58a15 15 0 0 0-2.19.83l5.62 3.24 1-.35c1.43-.48 2.78-.88 4-1.21a19 19 0 0 1 3.64-.6 12.7 12.7 0 0 1 3.34.22 10.78 10.78 0 0 1 3.2 1.25 6.42 6.42 0 0 1 2.42 2.12 2.86 2.86 0 0 1 .35 2.2 4.82 4.82 0 0 1-1.31 2.16 13.79 13.79 0 0 1-2.57 2l3.57 2.06-1.94 1.12-3.6-2.08a30 30 0 0 1-5.36 2 36.37 36.37 0 0 1-5.91 1.1l-1.88-3.37a15.13 15.13 0 0 0 1.57-.12c.71-.09 1.49-.22 2.36-.41s1.78-.42 2.74-.7a19.36 19.36 0 0 0 2.74-1l-5.58-3.22-.73.25-.76.23a39.22 39.22 0 0 1-3.87 1.09 17.44 17.44 0 0 1-3.29.44 11.3 11.3 0 0 1-2.9-.27 9.94 9.94 0 0 1-2.7-1.09 6.92 6.92 0 0 1-2.34-2 3.48 3.48 0 0 1-.63-2.17 4 4 0 0 1 .93-2.18 9.78 9.78 0 0 1 2.27-2.06l-3.27-1.91 1.95-1.13 3.27 1.89a24.21 24.21 0 0 1 4.82-1.77 36.46 36.46 0 0 1 4.82-.87Zm-9.54 5.89a4 4 0 0 0 2.43.52 15.31 15.31 0 0 0 3.34-.75l-5.25-3q-2.89 1.86-.52 3.23Zm18.43 1.54a4.12 4.12 0 0 0-2.63-.47 21.58 21.58 0 0 0-3.66.8l5.22 3q3.35-2.02 1.07-3.33Z"/><path class="cls-11" d="M148.33 258.18v-1.9l2.14 1.38-.93 1.44Zm18.7 1.2v-1.9l-4.65.36 2.67 1.82 1.98-.28zm.39-6.95v-1.92l-3.48 1.26 3.48.66zm-14.42-.1 1.15-1.11 4.08 2.82-.25.83s-3.05-1.29-3.15-1.36-1.83-1.18-1.83-1.18Zm-10.66-5.97 5.42 3.07 1.1-.8s-.68-.78-.73-.86a7.11 7.11 0 0 0-1.68-1.41c-.41-.08-3-1.23-3-1.23Zm9.01-1.95v-1.9l-2.49-.81-.53 1.49.13.68 2.89.54zm-16.52-1.37v-1.9l2.88.31-.93 1.84-1.95-.25zm.1 6.42v-2h3.3l-.81 1.76-1.42 1.61Z"/><path class="cls-13" d="M151.35 242.51a8 8 0 0 0-1.28.1c-.58.09-1.22.2-1.93.35s-1.46.34-2.23.57a15.05 15.05 0 0 0-2.19.84l5.62 3.24 1-.36c1.43-.47 2.78-.88 4-1.21a19 19 0 0 1 3.64-.6 12.7 12.7 0 0 1 3.34.23 10.75 10.75 0 0 1 3.2 1.24A6.43 6.43 0 0 1 167 249a2.83 2.83 0 0 1 .35 2.19 4.85 4.85 0 0 1-1.35 2.21 13.37 13.37 0 0 1-2.57 2l3.57 2.06-1.94 1.13-3.6-2.08a30 30 0 0 1-5.36 2 35.35 35.35 0 0 1-5.91 1.11l-1.88-3.38a15.13 15.13 0 0 0 1.57-.12 23.32 23.32 0 0 0 2.36-.4c.86-.19 1.78-.42 2.74-.7a19.36 19.36 0 0 0 2.74-1l-5.58-3.23-.73.26-.76.23c-1.41.46-2.7.82-3.87 1.09a17.44 17.44 0 0 1-3.29.44 11.3 11.3 0 0 1-2.9-.27 10.27 10.27 0 0 1-2.7-1.09 6.93 6.93 0 0 1-2.34-2 3.43 3.43 0 0 1-.63-2.16 4 4 0 0 1 .93-2.18 9.8 9.8 0 0 1 2.27-2.07l-3.31-1.91 1.95-1.12 3.27 1.89a24.21 24.21 0 0 1 4.82-1.77 34.9 34.9 0 0 1 4.82-.87Zm-9.54 5.89a4.11 4.11 0 0 0 2.43.52 15.92 15.92 0 0 0 3.34-.75l-5.25-3c-1.93 1.23-2.1 2.31-.52 3.23Zm18.43 1.53a4.25 4.25 0 0 0-2.63-.47 21.73 21.73 0 0 0-3.66.81l5.22 3c2.23-1.35 2.59-2.46 1.07-3.34Z"/></g><g id="Coin-3" data-name="Coin"><ellipse class="cls-9" cx="155.02" cy="244.29" rx="48.83" ry="28.19"/><path class="cls-9" d="M106.21 244.72v-12.85l9.64 8.6-9.64 4.25zm97.64-12.51v12.08l-4.93 5.24-2.42-13.83 7.35-3.49z"/><ellipse class="cls-10" cx="155.02" cy="232.21" rx="48.83" ry="28.19"/><path class="cls-11" d="M189.92 233.08c-.5 4.75-3.88 9.43-10.17 13.07-13.66 7.87-35.79 7.87-49.45 0-6.29-3.64-9.67-8.32-10.16-13.07-.59-5.55 2.81-11.23 10.16-15.47 13.66-7.89 35.79-7.89 49.45 0 7.35 4.24 10.75 9.92 10.17 15.47Z"/><path class="cls-12" d="M189.92 233.08c-.5 4.75-3.88 9.43-10.17 13.07-13.66 7.87-35.79 7.87-49.45 0-6.29-3.64-9.67-8.32-10.16-13.07.49-4.74 3.87-9.42 10.16-13.06 13.66-7.89 35.79-7.89 49.45 0 6.25 3.64 9.67 8.32 10.17 13.06Z"/><path class="cls-11" d="M154.51 226.48a8 8 0 0 0-1.28.1c-.57.08-1.22.2-1.93.35s-1.46.34-2.22.57a16.94 16.94 0 0 0-2.2.83l5.62 3.25 1-.36c1.42-.47 2.77-.88 4-1.21a18.81 18.81 0 0 1 3.63-.6 12.8 12.8 0 0 1 3.35.23 10.7 10.7 0 0 1 3.19 1.24 6.43 6.43 0 0 1 2.42 2.13 2.88 2.88 0 0 1 .36 2.19 5 5 0 0 1-1.32 2.17 14 14 0 0 1-2.56 2l3.57 2.06-1.95 1.13-3.6-2.08a30 30 0 0 1-5.36 2 35.05 35.05 0 0 1-5.9 1.11l-1.89-3.38a15.47 15.47 0 0 0 1.58-.12 23.64 23.64 0 0 0 2.35-.4c.87-.19 1.78-.42 2.74-.7a20.84 20.84 0 0 0 2.75-1l-5.59-3.22-.73.25-.76.24c-1.41.46-2.69.82-3.86 1.08a17.71 17.71 0 0 1-3.3.45 11 11 0 0 1-2.9-.28 9.9 9.9 0 0 1-2.7-1.08 6.9 6.9 0 0 1-2.33-2 3.31 3.31 0 0 1-.63-2.16 4.07 4.07 0 0 1 .92-2.19 10 10 0 0 1 2.32-2.08l-3.3-1.89 1.95-1.12 3.28 1.89a23.77 23.77 0 0 1 4.82-1.77 34.37 34.37 0 0 1 4.82-.87Zm-9.51 5.88a4.06 4.06 0 0 0 2.43.53 16.66 16.66 0 0 0 3.35-.75l-5.26-3q-2.92 1.86-.52 3.22Zm18.44 1.54a4.28 4.28 0 0 0-2.63-.47 20.87 20.87 0 0 0-3.67.81l5.22 3q3.32-2.03 1.05-3.34Z"/><path class="cls-11" d="M151.49 240.25c.06-.14 0-1.89 0-1.89l2.15 1.38-.93 1.43Zm18.7 1.2v-1.89l-4.65.35 2.67 1.82 1.98-.28zm.39-6.95v-1.91l-3.48 1.26 3.48.65zm-14.4-.1 1.16-1.11 4.08 2.82-.26.83s-3-1.28-3.14-1.36Zm-10.67-5.97 5.41 3.07 1.11-.8s-.68-.78-.73-.86a7.43 7.43 0 0 0-1.69-1.41c-.4-.07-3-1.22-3-1.22Zm9-1.95v-1.89l-2.48-.81-.54 1.48.13.68 2.89.54zm-16.52-1.37v-1.89l2.89.31-.94 1.83-1.95-.25zm.11 6.43v-2h3.3l-.8 1.76-1.44 1.58Z"/><path class="cls-13" d="M154.51 224.59a6.93 6.93 0 0 0-1.28.1c-.57.08-1.22.2-1.93.35s-1.46.34-2.22.57a16.94 16.94 0 0 0-2.2.83l5.62 3.24 1-.35c1.42-.48 2.77-.88 4-1.21a18.81 18.81 0 0 1 3.63-.6 12.8 12.8 0 0 1 3.35.22 10.73 10.73 0 0 1 3.19 1.25 6.43 6.43 0 0 1 2.42 2.13 2.88 2.88 0 0 1 .36 2.19 4.94 4.94 0 0 1-1.32 2.16 13.63 13.63 0 0 1-2.56 2l3.57 2.06-1.95 1.12-3.6-2.08a30 30 0 0 1-5.36 2 36.06 36.06 0 0 1-5.9 1.1l-1.89-3.37a15.47 15.47 0 0 0 1.58-.12c.7-.08 1.48-.22 2.35-.41s1.78-.42 2.74-.7a19.49 19.49 0 0 0 2.75-1l-5.59-3.22-.73.25-.76.23a39.09 39.09 0 0 1-3.86 1.09 17.65 17.65 0 0 1-3.3.44 11.39 11.39 0 0 1-2.9-.27 9.63 9.63 0 0 1-2.7-1.09 6.77 6.77 0 0 1-2.33-2 3.32 3.32 0 0 1-.63-2.17 4 4 0 0 1 .92-2.18 10 10 0 0 1 2.27-2.06l-3.25-1.87 1.95-1.13 3.28 1.9a22.63 22.63 0 0 1 4.82-1.77 36 36 0 0 1 4.82-.88Zm-9.51 5.88a4 4 0 0 0 2.43.52 15.38 15.38 0 0 0 3.35-.75l-5.26-3q-2.92 1.86-.52 3.23Zm18.41 1.53a4.21 4.21 0 0 0-2.63-.47 21.67 21.67 0 0 0-3.67.8l5.22 3q3.35-2.01 1.08-3.33Z"/></g><g id="Coin-4" data-name="Coin"><ellipse class="cls-9" cx="153.97" cy="226.37" rx="48.83" ry="28.19"/><path class="cls-9" d="M105.15 226.79v-12.84l9.65 8.59-9.65 4.25zm97.65-12.5v12.08l-4.93 5.23-2.42-13.83 7.35-3.48z"/><ellipse class="cls-10" cx="153.97" cy="214.29" rx="48.83" ry="28.19"/><path class="cls-11" d="M188.87 215.16c-.5 4.75-3.88 9.42-10.18 13.06-13.65 7.88-35.79 7.88-49.44 0-6.3-3.64-9.68-8.31-10.16-13.06-.59-5.56 2.8-11.24 10.16-15.48 13.65-7.89 35.79-7.89 49.44 0 7.36 4.24 10.76 9.92 10.18 15.48Z"/><path class="cls-12" d="M188.87 215.16c-.5 4.75-3.88 9.42-10.18 13.06-13.65 7.88-35.79 7.88-49.44 0-6.3-3.64-9.68-8.31-10.16-13.06.48-4.75 3.86-9.43 10.16-13.06 13.65-7.89 35.79-7.89 49.44 0 6.31 3.63 9.68 8.31 10.18 13.06Z"/><path class="cls-11" d="M153.46 208.55a8.24 8.24 0 0 0-1.28.11c-.58.08-1.22.19-1.94.34s-1.45.34-2.22.57a16.29 16.29 0 0 0-2.19.84l5.61 3.24 1-.35c1.43-.48 2.78-.88 4-1.21a19 19 0 0 1 3.64-.6 12.73 12.73 0 0 1 3.34.22 10.78 10.78 0 0 1 3.2 1.25 6.41 6.41 0 0 1 2.42 2.12 2.86 2.86 0 0 1 .35 2.2 4.82 4.82 0 0 1-1.31 2.16 13.68 13.68 0 0 1-2.57 2l3.57 2.07-1.94 1.12-3.61-2.08a28.85 28.85 0 0 1-5.35 2 35.35 35.35 0 0 1-5.91 1.11l-1.88-3.37a15.13 15.13 0 0 0 1.57-.12c.71-.09 1.49-.22 2.36-.41s1.78-.42 2.74-.7a19.36 19.36 0 0 0 2.74-1l-5.58-3.22-.73.25-.76.23c-1.41.46-2.7.83-3.87 1.09a17.55 17.55 0 0 1-3.29.44 11.43 11.43 0 0 1-2.91-.27 9.88 9.88 0 0 1-2.69-1.09 6.92 6.92 0 0 1-2.34-2 3.48 3.48 0 0 1-.63-2.17 4 4 0 0 1 .92-2.18 10 10 0 0 1 2.28-2.06l-3.31-1.91 1.94-1.13 3.28 1.89a24.21 24.21 0 0 1 4.82-1.77 36.46 36.46 0 0 1 4.82-.87Zm-9.55 5.89a4.08 4.08 0 0 0 2.44.52 15.31 15.31 0 0 0 3.34-.75l-5.26-3c-1.92 1.23-2.1 2.32-.52 3.23Zm18.44 1.56a4.18 4.18 0 0 0-2.63-.46 21.67 21.67 0 0 0-3.67.8l5.23 3q3.35-2.05 1.07-3.34Z"/><path class="cls-11" d="M150.44 222.33c.05-.14 0-1.9 0-1.9l2.14 1.38-.93 1.44Zm18.69 1.2v-1.9l-4.64.36 2.67 1.82 1.97-.28zm.4-6.95v-1.92l-3.48 1.26 3.48.66zm-14.41-.1 1.16-1.11 4.08 2.82-.25.83s-3.05-1.29-3.15-1.36-1.84-1.18-1.84-1.18Zm-10.67-5.97 5.41 3.07 1.11-.8s-.68-.79-.73-.86a7 7 0 0 0-1.69-1.41c-.4-.08-3-1.23-3-1.23Zm9.01-1.96v-1.89l-2.49-.81-.53 1.49.13.68 2.89.53zm-16.52-1.36v-1.9l2.88.31-.93 1.84-1.95-.25zm.06 6.42v-2h3.31l-.81 1.76-1.39 1.63Z"/><path class="cls-13" d="M153.46 206.66a8 8 0 0 0-1.28.1c-.58.09-1.22.2-1.94.35s-1.45.34-2.22.57a15.05 15.05 0 0 0-2.19.84l5.61 3.24 1-.36c1.43-.47 2.78-.88 4-1.21a19 19 0 0 1 3.64-.6 12.73 12.73 0 0 1 3.34.23 10.75 10.75 0 0 1 3.2 1.24 6.51 6.51 0 0 1 2.42 2.13 2.83 2.83 0 0 1 .35 2.19 4.85 4.85 0 0 1-1.31 2.17 14.11 14.11 0 0 1-2.57 2l3.57 2.06-1.94 1.13-3.61-2.08a29.58 29.58 0 0 1-5.35 2 35.35 35.35 0 0 1-5.91 1.11l-1.88-3.38a15.13 15.13 0 0 0 1.57-.12 23.32 23.32 0 0 0 2.36-.4c.86-.19 1.78-.42 2.74-.7a19.36 19.36 0 0 0 2.74-1l-5.53-3.17-.73.26-.76.23c-1.41.46-2.7.82-3.87 1.09a17.55 17.55 0 0 1-3.29.44 11.43 11.43 0 0 1-2.91-.27 10.21 10.21 0 0 1-2.69-1.09 6.93 6.93 0 0 1-2.34-2 3.43 3.43 0 0 1-.63-2.16 4 4 0 0 1 .92-2.18 10.07 10.07 0 0 1 2.28-2.07l-3.31-1.91 1.94-1.12 3.28 1.89a24.21 24.21 0 0 1 4.82-1.77 34.9 34.9 0 0 1 4.82-.87Zm-9.55 5.89a4.16 4.16 0 0 0 2.44.52 16.59 16.59 0 0 0 3.34-.75l-5.26-3c-1.92 1.23-2.1 2.31-.52 3.23Zm18.44 1.53a4.25 4.25 0 0 0-2.63-.47 21.82 21.82 0 0 0-3.67.81l5.23 3c2.23-1.35 2.59-2.42 1.07-3.34Z"/></g><ellipse class="cls-1" cx="364.04" cy="461.2" rx="48.83" ry="28.19"/><g id="Coin-5" data-name="Coin"><ellipse class="cls-9" cx="369.82" cy="455.64" rx="48.83" ry="28.19"/><path class="cls-9" d="M321.01 456.07v-12.85l9.64 8.6-9.64 4.25zm97.64-12.51v12.08l-4.93 5.24-2.41-13.83 7.34-3.49z"/><ellipse class="cls-10" cx="369.82" cy="443.56" rx="48.83" ry="28.19"/><path class="cls-11" d="M404.72 444.43c-.49 4.75-3.88 9.43-10.17 13.07-13.66 7.87-35.79 7.87-49.45 0-6.29-3.64-9.67-8.32-10.16-13.07-.59-5.55 2.81-11.23 10.16-15.47 13.66-7.89 35.79-7.89 49.45 0 7.36 4.24 10.75 9.92 10.17 15.47Z"/><path class="cls-12" d="M404.72 444.43c-.49 4.75-3.88 9.43-10.17 13.07-13.66 7.87-35.79 7.87-49.45 0-6.29-3.64-9.67-8.32-10.16-13.07.49-4.74 3.87-9.42 10.16-13.06 13.66-7.89 35.79-7.89 49.45 0 6.29 3.63 9.68 8.32 10.17 13.06Z"/><path class="cls-11" d="M369.31 437.83a8 8 0 0 0-1.28.1c-.57.08-1.22.2-1.93.35s-1.46.34-2.22.57a16.94 16.94 0 0 0-2.2.83l5.62 3.25 1-.36c1.42-.47 2.77-.88 4-1.21a18.81 18.81 0 0 1 3.63-.6 12.8 12.8 0 0 1 3.35.23 10.43 10.43 0 0 1 3.19 1.24 6.43 6.43 0 0 1 2.42 2.13 2.88 2.88 0 0 1 .36 2.19 4.93 4.93 0 0 1-1.32 2.17 13.68 13.68 0 0 1-2.56 2l3.63 2.08-2 1.13-3.6-2.08a29.68 29.68 0 0 1-5.36 2 34.06 34.06 0 0 1-5.9 1.1l-1.89-3.37a15.47 15.47 0 0 0 1.58-.12 23.16 23.16 0 0 0 2.35-.4c.87-.19 1.78-.42 2.74-.71a19.49 19.49 0 0 0 2.75-1l-5.59-3.22-.73.25-.76.24c-1.41.46-2.69.82-3.86 1.08a16.86 16.86 0 0 1-3.3.44 10.55 10.55 0 0 1-2.9-.27 9.72 9.72 0 0 1-2.69-1.08 6.84 6.84 0 0 1-2.34-2 3.31 3.31 0 0 1-.63-2.16 4.07 4.07 0 0 1 .92-2.19 10 10 0 0 1 2.27-2.06l-3.31-1.91 1.95-1.12 3.28 1.89a23.77 23.77 0 0 1 4.82-1.77 34.37 34.37 0 0 1 4.82-.87Zm-9.54 5.88a4.07 4.07 0 0 0 2.43.53 16.66 16.66 0 0 0 3.35-.75l-5.26-3q-2.89 1.85-.52 3.22Zm18.44 1.54a4.21 4.21 0 0 0-2.63-.47 20.87 20.87 0 0 0-3.67.81l5.22 3q3.35-2.03 1.08-3.34Z"/><path class="cls-11" d="M366.29 451.6c.06-.14 0-1.89 0-1.89l2.15 1.38-.93 1.43Zm18.7 1.2v-1.89l-4.65.35 2.67 1.82 1.98-.28zm.39-6.95v-1.91l-3.48 1.26 3.48.65zm-14.38-.1 1.16-1.11 4.08 2.82-.26.83s-3-1.28-3.14-1.36Zm-10.69-5.97 5.41 3.07 1.11-.8s-.68-.78-.73-.86a7.43 7.43 0 0 0-1.69-1.41c-.4-.07-3-1.22-3-1.22Zm9-1.95v-1.89l-2.48-.81-.54 1.48.13.68 2.89.54zm-16.52-1.37v-1.89l2.89.31-.94 1.83-1.95-.25zm.11 6.43v-2h3.3l-.8 1.76-1.4 1.6Z"/><path class="cls-13" d="M369.31 435.94a6.93 6.93 0 0 0-1.28.1c-.57.08-1.22.19-1.93.34s-1.46.35-2.22.58a16.94 16.94 0 0 0-2.2.83l5.62 3.21 1-.35c1.42-.48 2.77-.88 4-1.21a18.81 18.81 0 0 1 3.63-.6 12.8 12.8 0 0 1 3.35.22 10.73 10.73 0 0 1 3.19 1.25 6.35 6.35 0 0 1 2.42 2.13 2.88 2.88 0 0 1 .36 2.19 4.85 4.85 0 0 1-1.32 2.16 13.71 13.71 0 0 1-2.56 2l3.57 2.06L383 452l-3.6-2.08a29.69 29.69 0 0 1-5.36 2 36.06 36.06 0 0 1-5.9 1.1l-1.89-3.37a15.47 15.47 0 0 0 1.58-.12 23.4 23.4 0 0 0 2.35-.41c.87-.18 1.78-.42 2.74-.7a19.49 19.49 0 0 0 2.75-1l-5.59-3.22-.73.25-.76.23a39.09 39.09 0 0 1-3.86 1.09 17.65 17.65 0 0 1-3.3.44 11.39 11.39 0 0 1-2.9-.27 9.76 9.76 0 0 1-2.69-1.09 6.72 6.72 0 0 1-2.34-2 3.34 3.34 0 0 1-.63-2.17 4 4 0 0 1 .92-2.18 10 10 0 0 1 2.27-2.06l-3.31-1.91 1.95-1.13 3.28 1.9a23.21 23.21 0 0 1 4.82-1.78 37.54 37.54 0 0 1 4.82-.87Zm-9.54 5.88a4.07 4.07 0 0 0 2.43.52 15.38 15.38 0 0 0 3.35-.75l-5.26-3q-2.89 1.86-.52 3.23Zm18.44 1.54a4.21 4.21 0 0 0-2.63-.47 21.67 21.67 0 0 0-3.67.8l5.22 3q3.35-2.02 1.08-3.33Z"/></g><g id="Coin-6" data-name="Coin"><ellipse class="cls-9" cx="369.82" cy="439.83" rx="48.83" ry="28.19"/><path class="cls-9" d="M321.01 440.25v-12.84l9.64 8.59-9.64 4.25zm97.64-12.51v12.09l-4.93 5.23-2.41-13.83 7.34-3.49z"/><ellipse class="cls-10" cx="369.82" cy="427.74" rx="48.83" ry="28.19"/><path class="cls-11" d="M404.72 428.62c-.49 4.75-3.88 9.42-10.17 13.06-13.66 7.88-35.79 7.88-49.45 0-6.29-3.64-9.67-8.31-10.16-13.06-.59-5.56 2.81-11.24 10.16-15.48 13.66-7.89 35.79-7.89 49.45 0 7.36 4.24 10.75 9.92 10.17 15.48Z"/><path class="cls-12" d="M404.72 428.62c-.49 4.75-3.88 9.42-10.17 13.06-13.66 7.88-35.79 7.88-49.45 0-6.29-3.64-9.67-8.31-10.16-13.06.49-4.75 3.87-9.43 10.16-13.06 13.66-7.89 35.79-7.89 49.45 0 6.29 3.63 9.68 8.31 10.17 13.06Z"/><path class="cls-11" d="M369.31 422a8 8 0 0 0-1.28.1c-.57.09-1.22.2-1.93.35s-1.46.34-2.22.57a15.63 15.63 0 0 0-2.2.84l5.62 3.24 1-.36c1.42-.47 2.77-.87 4-1.21a18.81 18.81 0 0 1 3.63-.6 13.25 13.25 0 0 1 3.35.23 10.47 10.47 0 0 1 3.19 1.25 6.33 6.33 0 0 1 2.42 2.12 2.91 2.91 0 0 1 .36 2.2 4.85 4.85 0 0 1-1.25 2.17 13.28 13.28 0 0 1-2.56 2L385 437l-2 1.11-3.6-2.08a29 29 0 0 1-5.36 2 35.05 35.05 0 0 1-5.9 1.11l-1.89-3.37a13.52 13.52 0 0 0 1.58-.13 23.16 23.16 0 0 0 2.35-.4c.87-.19 1.78-.42 2.74-.7a19.49 19.49 0 0 0 2.75-1l-5.59-3.23-.73.26-.76.23c-1.41.46-2.69.83-3.86 1.09a17.65 17.65 0 0 1-3.3.44 11.39 11.39 0 0 1-2.9-.27 10.08 10.08 0 0 1-2.69-1.09 6.64 6.64 0 0 1-2.34-2 3.31 3.31 0 0 1-.63-2.16 4 4 0 0 1 .92-2.18 9.78 9.78 0 0 1 2.27-2.06l-3.31-1.92 1.95-1.12 3.28 1.89a23.77 23.77 0 0 1 4.82-1.77 34.37 34.37 0 0 1 4.82-.87Zm-9.54 5.89a4.07 4.07 0 0 0 2.43.52 15.38 15.38 0 0 0 3.35-.75l-5.26-3c-1.93 1.24-2.1 2.34-.52 3.24Zm18.44 1.53a4.28 4.28 0 0 0-2.63-.47 22.85 22.85 0 0 0-3.67.81l5.22 3q3.35-2.01 1.08-3.33Z"/><path class="cls-11" d="M366.29 435.79c.06-.14 0-1.9 0-1.9l2.15 1.38-.93 1.43Zm18.7 1.19v-1.89l-4.65.36 2.67 1.81 1.98-.28zm.39-6.95v-1.91l-3.48 1.26 3.48.65zm-14.38-.1 1.16-1.1 4.08 2.82-.26.83s-3-1.29-3.14-1.36-1.84-1.19-1.84-1.19ZM360.31 424l5.41 3.07 1.11-.81s-.68-.78-.73-.85a7 7 0 0 0-1.69-1.41c-.4-.08-3-1.23-3-1.23Zm9-1.99v-1.89l-2.48-.81-.54 1.49.13.68 2.89.53zm-16.52-1.37v-1.89l2.89.31-.94 1.84-1.95-.26zm.11 6.43v-2h3.3l-.8 1.76-1.4 1.61Z"/><path class="cls-13" d="M369.31 420.12a8 8 0 0 0-1.28.1c-.57.08-1.22.2-1.93.35s-1.46.34-2.22.57a16.94 16.94 0 0 0-2.2.83l5.62 3.25 1-.36c1.42-.47 2.77-.88 4-1.21a18.81 18.81 0 0 1 3.63-.6 12.8 12.8 0 0 1 3.35.23 10.7 10.7 0 0 1 3.19 1.24 6.43 6.43 0 0 1 2.42 2.13 2.88 2.88 0 0 1 .36 2.19A4.93 4.93 0 0 1 384 431a13.68 13.68 0 0 1-2.56 2l3.57 2.06-2.01 1.16-3.6-2.08a29.68 29.68 0 0 1-5.36 2 35.05 35.05 0 0 1-5.9 1.11l-1.89-3.38a15.47 15.47 0 0 0 1.58-.12 23.16 23.16 0 0 0 2.35-.4c.87-.19 1.78-.42 2.74-.7a20.84 20.84 0 0 0 2.75-1l-5.59-3.22-.73.25-.76.24c-1.41.46-2.69.82-3.86 1.08a17.71 17.71 0 0 1-3.3.45 11 11 0 0 1-2.9-.28 9.72 9.72 0 0 1-2.69-1.08 6.84 6.84 0 0 1-2.34-2 3.31 3.31 0 0 1-.63-2.16 4.07 4.07 0 0 1 .92-2.19 10 10 0 0 1 2.27-2.06l-3.31-1.91 1.95-1.12 3.28 1.89a23.77 23.77 0 0 1 4.82-1.77 34.37 34.37 0 0 1 4.82-.87Zm-9.54 5.88a4.07 4.07 0 0 0 2.43.53 16.66 16.66 0 0 0 3.35-.75l-5.26-3q-2.89 1.85-.52 3.22Zm18.44 1.54a4.21 4.21 0 0 0-2.63-.47 20.87 20.87 0 0 0-3.67.81l5.22 3q3.35-2.03 1.08-3.34Z"/></g><path style="opacity:.15" d="m300.81 269.58-17.84-10.59.12-105.44 17.84 10.59-.12 105.44z"/><path class="cls-9" d="M287.08 160.61c-21.53 13.39-38.73 43.77-38.73 68.86s17.2 35.62 38.73 24.16Z"/><path class="cls-9" d="m287.07 160.6 10.58 6.04-8.57 18.2-9.53-8.23 7.52-16.01zm-14.55 101.91c-.22-.1-14-8-14-8l7.37-5.88Z"/><path class="cls-10" d="M297.65 166.64c-21.52 13.4-38.72 43.78-38.72 68.87s17.2 35.61 38.72 24.16Z"/><path class="cls-12" d="M297.65 183c-15.2 9.73-27.26 31.23-27.26 49s12.06 25.35 27.26 17.53Z"/><path class="cls-13" d="M291.32 217.87a4.78 4.78 0 0 0 2.36.34 19.69 19.69 0 0 0 3.36-.6l.61-.14v-6.23a4.63 4.63 0 0 1-2 0c-.59-.16-.89-.74-.89-1.74a6.24 6.24 0 0 1 2.85-5v-5.28a22.3 22.3 0 0 0-3 2.54 19.6 19.6 0 0 0-2.75 3.51 18.5 18.5 0 0 0-1.82 4 14.39 14.39 0 0 0-.66 4.3 6.75 6.75 0 0 0 .48 2.82 2.87 2.87 0 0 0 1.46 1.48Zm6.33 7.21a12.13 12.13 0 0 1-1.88.57 16.8 16.8 0 0 1-2.31.31 8.08 8.08 0 0 1-1.78-.09 3.76 3.76 0 0 1-1.05-.32l-2.31 6.54a11.43 11.43 0 0 0 4.57.06 18.47 18.47 0 0 0 4.76-1.55Z"/><path class="cls-1" d="M183.14 499 1.7 394.26c-2.52-1.45-2.2-4 .7-5.65l101.39-58.54c2.9-1.68 7.29-1.86 9.8-.41L295 434.42c2.51 1.45 2.2 4-.7 5.66l-101.36 58.53c-2.94 1.68-7.29 1.86-9.8.39Z"/><path class="cls-15" d="m300.93 430.51-1.9.69-181.24-104.64c-2.51-1.45-6.9-1.27-9.8.4L6.6 385.5a6.66 6.66 0 0 0-1.16.84l-1.23-1v3.32a2.89 2.89 0 0 0 1.69 2.47l181.44 104.79c2.51 1.45 6.9 1.26 9.8-.41L298.53 437c1.64-1 2.45-2.17 2.4-3.31Z"/><path d="M187.34 492.72 5.9 388c-2.52-1.45-2.2-4 .7-5.65L108 323.77c2.9-1.68 7.29-1.86 9.8-.41l181.43 104.76c2.52 1.45 2.2 4-.7 5.66l-101.39 58.53c-2.9 1.69-7.29 1.86-9.8.41Z" style="fill:#f8f9ff"/><path class="cls-15" d="m66.3 405.07-34.82-20.09 8.06-4.65 34.81 20.09-8.05 4.65zm69.4-40.89-34.81-20.1 8.05-4.65 34.81 20.1-8.05 4.65zm-27.23 65.25-34.8-20.1 8.05-4.65 34.81 20.1-8.06 4.65zm42.19 24.35-34.82-20.1 8.06-4.65 34.81 20.1-8.05 4.65zm42.18 24.35-34.81-20.1 8.05-4.65 34.81 20.1-8.05 4.65z"/><ellipse class="cls-17" cx="257.14" cy="429.02" rx="14.69" ry="8.48"/><ellipse class="cls-17" cx="245.76" cy="422.44" rx="14.69" ry="8.48"/></g></g></svg>