<svg xmlns="http://www.w3.org/2000/svg" viewBox="0 0 429.12 500"><defs><linearGradient id="Безымянный_градиент_15" x1="-2115.87" y1="3245.53" x2="-2115.87" y2="3226.31" gradientTransform="matrix(.87 .5 -1 .58 5178.35 -503.07)" gradientUnits="userSpaceOnUse"><stop offset=".21" stop-color="#fff" stop-opacity="0"/><stop offset="1" stop-color="#fff" stop-opacity=".2"/></linearGradient><style>.cls-1{fill:#d6d8e5;opacity:.4}.cls-2{fill:#efda86}.cls-3{fill:#d1b66b}.cls-4{fill:#e2c979}.cls-11,.cls-5{opacity:.1}.cls-6{fill:#b1b4c4}.cls-7{fill:#616e84}.cls-8{fill:#20232d}.cls-11{fill:#fff}.cls-10{fill:#2b303f}.cls-12{fill:#757b89}.cls-14{fill:#d9dae2}.cls-15{fill:#e26161}.cls-16{fill:#f4f5f9}.cls-18{fill:#c65555}.cls-19{fill:#ff6c6c}.cls-20{fill:#dd6262}.cls-21{fill:#ffcea9}.cls-22{fill:#ededed}.cls-23{fill:#2b2a30}.cls-24{fill:#9c73ff}.cls-29{fill:#eff0f9}</style></defs><g id="Слой_2" data-name="Слой 2"><g id="Слой_1-2" data-name="Слой 1"><path class="cls-1" d="m167.55 279.29-34.63-19.88 37.15-21.44 34.63 19.88-37.15 21.44z"/><path class="cls-2" d="m171.43 234.65-37.14-21.45 37.14-21.45 37.15 21.45-37.15 21.45z"/><path class="cls-3" d="m206.07 257.04-34.64 20v-40l34.64-19.99v39.99z"/><path class="cls-4" d="m171.43 277.04-34.63-20v-39.99l34.63 19.99v40z"/><path class="cls-5" d="M136.8 217.05v10.46l34.63 19.77v-10.19l-34.63-20.04zm69.27 0v11.21l-34.64 19.02v-10.19l34.64-20.04z"/><path class="cls-4" d="M134.29 213.2v11.09l37.14 21.16v-10.8l-37.14-21.45z"/><path class="cls-3" d="m171.43 245.45 37.15-20.29V213.2l-37.15 21.45v10.8z"/><path class="cls-1" d="m307 370-110.72-63.76a4.09 4.09 0 0 1 .17-7.17l13.93-7.18a4.11 4.11 0 0 1 3.91.09l114.45 65.9a4.08 4.08 0 0 1-.17 7.17l-10.11 5.21A11.94 11.94 0 0 1 307 370Z"/><path class="cls-6" d="m313.8 358-94.36-54.48c-8-4.61-14.47-17-14.47-27.65V12.68C205 2 211.45-2.88 219.44 1.74l94.36 54.47c8 4.62 14.47 17 14.47 27.65v263.2c0 10.66-6.48 15.55-14.47 10.94Z"/><path class="cls-6" d="m315.42 362.74 7.47-3.78-7.17-12.29-.3 16.07zM203.51 4.36l6.88-3.61L209 10.9l-5.49-6.54z"/><path class="cls-7" d="m307.78 361-94.35-54.48c-8-4.61-14.47-17-14.47-27.65V15.69C199 5 205.44.13 213.43 4.74l94.35 54.48c8 4.62 14.48 17 14.48 27.65v263.2c0 10.65-6.48 15.55-14.48 10.93Z"/><path class="cls-8" d="M321.25 87.54v263.19c0 10.67-6.47 15.56-14.47 10.95l-37-21.36-11.51-6.65-45.85-26.47c-8-4.62-14.46-17-14.46-27.65V16.36C198 5.69 204.43.8 212.42 5.41l94.36 54.48c8 4.62 14.47 16.99 14.47 27.65Z"/><path d="M314.44 84.87v256.34c0 6.46-4.53 9.08-10.11 5.84l-5-2.9-17.14-9.89-7.37-4.26-2.6-1.51-.87-.51-6.35-3.65-18.45-10.64-7.6-4.39-3.08-1.78-18.4-10.62-2.51-1.45c-5.6-3.23-10.12-11.08-10.12-17.55V21.54c0-6.46 4.52-9.08 10.12-5.85L251.72 37v.1a17.43 17.43 0 0 0 7.88 13.66c4.36 2.5 7.89.47 7.89-4.55v-.11l36.85 21.27c5.57 3.19 10.1 11.04 10.1 17.5Z" style="fill:#fff"/><ellipse class="cls-10" cx="259.6" cy="44.4" rx="2.44" ry="4.23" transform="matrix(.87 -.5 .5 .87 12.58 135.76)"/><path class="cls-11" d="M259.6 45.85a2.77 2.77 0 0 1-1.25-2.17c0-.8.56-1.12 1.25-.72a2.75 2.75 0 0 1 1.26 2.17c0 .8-.56 1.12-1.26.72Z"/><path class="cls-12" d="M325.08 122.17c-.77.45-1.39 0-1.39-1V109.9a3.32 3.32 0 0 1 1.39-2.66c.77-.45 1.39 0 1.39 1.05v11.22a3.32 3.32 0 0 1-1.39 2.66Zm0 18.39c-.77.44-1.39 0-1.39-1.05v-11.23a3.35 3.35 0 0 1 1.39-2.66c.77-.44 1.39 0 1.39 1.06v11.22a3.33 3.33 0 0 1-1.39 2.66Z"/><path d="m293.84 172.51-71-41c-3-1.74-5.46-6.41-5.46-10.44v-80c0-4 2.44-5.87 5.46-4.13l71 41c3 1.74 5.46 6.41 5.46 10.43v80c0 4.03-2.44 5.88-5.46 4.14Zm0 107.05-71-41c-3-1.74-5.46-6.41-5.46-10.43v-80c0-4 2.44-5.87 5.46-4.13l71 41c3 1.74 5.46 6.41 5.46 10.44v80c0 4.01-2.44 5.86-5.46 4.12Zm5.47 22.9v41.69L274.82 330l-2.6-1.51-.87-.51-6.35-3.65-18.45-10.64-7.65-4.41-3.08-1.78-18.4-10.62v-41.7c0-4 2.45-5.86 5.46-4.12l71 41c2.98 1.71 5.43 6.38 5.43 10.4Z" style="fill:#e9eaf2"/><path class="cls-14" d="M279.71 106.47 270 89.64a4.5 4.5 0 0 0-1.55-1.64 1.66 1.66 0 0 0-.27-.13 2.2 2.2 0 0 0-.28-.18l-2.7-1.56c-.74-.43-1.43-.4-1.83.09-.86 1-2.8.91-4.94-.33a12.23 12.23 0 0 1-4.94-5.37 4.64 4.64 0 0 0-1.84-2.21L249 76.76a1.74 1.74 0 0 0-.27-.14 1.71 1.71 0 0 0-1.82-.33l-9.71 5.61c-.86.5-.86 2.09 0 3.57l5.31 9.2a4.53 4.53 0 0 0 1.49 1.64 1.56 1.56 0 0 0 1.55.15l1.22-.71v22.5A4.86 4.86 0 0 0 249 122l18.9 11c1.21.7 2.18.13 2.18-1.26v-22.5l1.23 2.12a4.42 4.42 0 0 0 1.54 1.63 1.56 1.56 0 0 0 1.55.15l5.31-3.07c.85-.53.85-2.07 0-3.6Zm-4.11 102.79-34.35-19.83a32.3 32.3 0 0 0-1.43 9.09V220l15.74 9.09 2.87-16.52 2.86 19.83 15.71 9.09V220a50 50 0 0 0-1.4-10.74Zm0-6.61-34.35-19.83v4.96l34.35 19.83v-4.96zm6.57 131.61-7.35-4.26-2.6-1.51-.87-.51-6.35-3.65-18.45-10.64-7.6-4.39v-10.56c0-1.05.73-1.48 1.65-1a3.78 3.78 0 0 1 1.49 2l.31 1a14.86 14.86 0 0 0 6.06 7.94c3.67 2.12 6.67.39 6.67-3.86v-1.28c0-1.3.92-1.85 2-1.19a4 4 0 0 1 1.31 1.31l2.93 4.49-3.3 1.85 1.83 3.14 3.46-2 1.5 2.31-3.15 1.82 1.81 3.15 3.33-1.92 1.5 2.31-3 1.74 1.81 3.15 3.19-1.84a23.51 23.51 0 0 0 7.09 6.79l.58.32a10.51 10.51 0 0 1 4.15 5.29Z"/><path class="cls-5" d="M305.41 98.86 216.76 48V16.59l88.65 50.85v31.42z"/><path class="cls-15" d="m198.5 45.32-10.92-6.31 29.49-22.06 10.92 6.3-29.49 22.07z"/><path class="cls-16" d="m209.43 51.62-10.93-6.3 29.49-22.07 10.92 6.31-29.48 22.06z"/><path class="cls-15" d="m220.35 57.93-10.92-6.31 29.48-22.06 10.92 6.3-29.48 22.07z"/><path class="cls-16" d="m231.27 64.23-10.92-6.3 29.48-22.07 10.92 6.31-29.48 22.06z"/><path class="cls-15" d="m242.19 70.54-10.92-6.31 29.48-22.06 10.92 6.3-29.48 22.07z"/><path class="cls-16" d="m253.11 76.84-10.92-6.3 29.48-22.07 10.92 6.31-29.48 22.06z"/><path class="cls-15" d="m264.03 83.15-10.92-6.31 29.48-22.06 10.92 6.3-29.48 22.07z"/><path class="cls-16" d="m274.95 89.45-10.92-6.3 29.48-22.07 10.93 6.31-29.49 22.06z"/><path class="cls-15" d="M193.12 48.39c3 1.74 5.46.33 5.46-3.15l-10.92-6.31a12.09 12.09 0 0 0 5.46 9.46Z"/><path class="cls-16" d="M204.05 54.69c3 1.75 5.46.33 5.46-3.15l-10.93-6.3a12.06 12.06 0 0 0 5.47 9.45Z"/><path class="cls-15" d="M215 61c3 1.74 5.46.33 5.46-3.15l-10.92-6.31A12.06 12.06 0 0 0 215 61Z"/><path class="cls-16" d="M225.89 67.31c3 1.74 5.46.32 5.46-3.16l-10.92-6.3a12.08 12.08 0 0 0 5.46 9.46Z"/><path class="cls-15" d="M236.81 73.61c3 1.74 5.46.33 5.46-3.15l-10.92-6.31a12.06 12.06 0 0 0 5.46 9.46Z"/><path class="cls-16" d="M247.73 79.92c3 1.74 5.46.33 5.46-3.16l-10.92-6.3a12.08 12.08 0 0 0 5.46 9.46Z"/><path class="cls-15" d="M258.65 86.22c3 1.74 5.46.33 5.46-3.15l-10.92-6.31a12 12 0 0 0 5.46 9.46Z"/><path class="cls-16" d="M269.57 92.53c3 1.74 5.46.33 5.46-3.16l-10.92-6.3a12.08 12.08 0 0 0 5.46 9.46Z"/><g style="opacity:.15"><path d="M193.12 48.39c3 1.74 5.46.33 5.46-3.15l-10.92-6.31a12.09 12.09 0 0 0 5.46 9.46Zm10.93 6.3c3 1.75 5.46.33 5.46-3.15l-10.93-6.3a12.06 12.06 0 0 0 5.47 9.45ZM215 61c3 1.74 5.46.33 5.46-3.15l-10.92-6.31A12.06 12.06 0 0 0 215 61Z"/><path d="M225.89 67.31c3 1.74 5.46.32 5.46-3.16l-10.92-6.3a12.08 12.08 0 0 0 5.46 9.46Zm10.92 6.3c3 1.74 5.46.33 5.46-3.15l-10.92-6.31a12.06 12.06 0 0 0 5.46 9.46Zm10.92 6.31c3 1.74 5.46.33 5.46-3.16l-10.92-6.3a12.08 12.08 0 0 0 5.46 9.46Zm10.92 6.3c3 1.74 5.46.33 5.46-3.15l-10.92-6.31a12 12 0 0 0 5.46 9.46Zm10.92 6.31c3 1.74 5.46.33 5.46-3.16l-10.92-6.3a12.08 12.08 0 0 0 5.46 9.46Z"/></g><path class="cls-1" d="m380.78 394.51-39.49-22.8 4.95-2.87 39.5 22.79-4.96 2.88z"/><path class="cls-18" d="m396.04 385.91-39.65-22.9 4.96-45.22 29.74 17.17 4.95 50.95z"/><path class="cls-19" d="m385.74 391.63-39.66-22.89 4.96-45.22 29.74 17.17 4.96 50.94z"/><path class="cls-20" d="m385.74 391.63 10.3-5.72-4.95-50.95-10.31 5.73 4.96 50.94z"/><path class="cls-18" d="m351.04 323.52 10.31-5.73-1.21 10.98-9.1-5.25z"/><path class="cls-8" d="m373.34 336.29-1.83-1.06c0-4.27-2.51-9.19-5.6-11s-5.59.24-5.59 4.51l-1.84-1.06c0-5.43 3.34-7.93 7.43-5.57s7.43 8.75 7.43 14.18Zm9.66-5.91-1.83-1.06c0-4.27-2.51-9.19-5.6-11s-5.59.24-5.59 4.51l-1.84-1.06c0-5.43 3.34-7.93 7.43-5.57S383 325 383 330.38Z"/><path class="cls-1" d="m345.26 423.43-56.9-32.83 7.14-4.15 56.9 32.84-7.14 4.14z"/><path class="cls-18" d="m367.24 411.04-57.12-32.98 7.14-65.14 42.84 24.74 7.14 73.38z"/><path class="cls-19" d="m352.4 419.29-57.13-32.98 7.14-65.14 42.85 24.73 7.14 73.39z"/><path class="cls-20" d="m352.4 419.29 14.84-8.25-7.14-73.38-14.84 8.24 7.14 73.39z"/><path class="cls-18" d="m302.41 321.17 14.85-8.25-1.74 15.82-13.11-7.57z"/><path class="cls-8" d="M334.54 339.57 331.9 338c0-6.15-3.62-13.24-8.06-15.8s-8.07.34-8.07 6.49l-2.64-1.52c0-7.83 4.8-11.43 10.71-8s10.7 12.57 10.7 20.4Zm13.93-8.51-2.64-1.53c0-6.15-3.62-13.24-8.06-15.81s-8.07.35-8.07 6.5l-2.64-1.52c0-7.84 4.81-11.43 10.71-8s10.7 12.52 10.7 20.36Z"/><path class="cls-1" d="m109.47 280.6-21.38-12.27 24.01-13.86 21.37 12.28-24 13.85z"/><path class="cls-2" d="m112.94 252.43-22.93-13.24 22.93-13.24 22.93 13.24-22.93 13.24z"/><path class="cls-3" d="m134.32 266.25-21.38 12.34V253.9l21.38-12.34v24.69z"/><path class="cls-4" d="m112.94 278.59-21.38-12.34v-24.69l21.38 12.34v24.69z"/><path class="cls-5" d="M91.56 241.56v6.46l21.38 12.2v-6.29l-21.38-12.37zm42.76 0v6.92l-21.38 11.74v-6.29l21.38-12.37z"/><path class="cls-4" d="M90.01 239.19v6.84l22.93 13.06v-6.66l-22.93-13.24z"/><path class="cls-3" d="m112.94 259.09 22.93-12.52v-7.38l-22.93 13.24v6.66z"/><path class="cls-1" d="m389.25 422.32-19.3-11.07 21.72-12.54 19.3 11.08-21.72 12.53z"/><path class="cls-2" d="m392.43 396.86-20.7-11.95 20.7-11.95 20.7 11.95-20.7 11.95z"/><path class="cls-3" d="m411.73 409.34-19.3 11.14v-22.29l19.3-11.14v22.29z"/><path class="cls-4" d="m392.43 420.48-19.3-11.14v-22.29l19.3 11.14v22.29z"/><path class="cls-5" d="M373.13 387.05v5.83l19.3 11.02v-5.68l-19.3-11.17zm38.6 0v6.25l-19.3 10.6v-5.68l19.3-11.17z"/><path class="cls-4" d="M371.73 384.91v6.18l20.7 11.79v-6.02l-20.7-11.95z"/><path class="cls-3" d="m392.43 402.88 20.7-11.31v-6.66l-20.7 11.95v6.02z"/><path class="cls-1" d="m161.37 313.52-41.09-23.71 5.16-2.99 41.09 23.71-5.16 2.99z"/><path class="cls-18" d="m177.25 304.57-41.26-23.82 5.16-47.04 30.94 17.87 5.16 52.99z"/><path class="cls-19" d="m166.53 310.53-41.26-23.82 5.16-47.04 30.94 17.86 5.16 53z"/><path class="cls-20" d="m166.53 310.53 10.72-5.96-5.16-52.99-10.72 5.95 5.16 53z"/><path class="cls-18" d="m130.43 239.67 10.72-5.96-1.25 11.42-9.47-5.46z"/><path class="cls-8" d="m153.63 253-1.9-1.1c0-4.45-2.62-9.57-5.83-11.42s-5.82.25-5.82 4.69l-1.91-1.1c0-5.65 3.47-8.25 7.73-5.79s7.73 9.02 7.73 14.72Zm10.06-6.19-1.9-1.1c0-4.44-2.62-9.57-5.83-11.42s-5.82.25-5.82 4.69l-1.91-1.1c0-5.65 3.47-8.25 7.73-5.79s7.73 9.06 7.73 14.72Z"/><g id="Men_2"><ellipse class="cls-1" cx="43.6" cy="474.83" rx="43.6" ry="25.17"/><path id="_Контур_" data-name="&lt;Контур&gt;" class="cls-21" d="M11.63 286.29c-.49 4.24-5.54 22.52-4.46 28.78s18.35 16.73 18.35 16.73l2.4-10.72-9.57-9.36L20.94 294Z"/><path id="_Контур_2" data-name="&lt;Контур&gt;" class="cls-22" d="M25 268.28a7.54 7.54 0 0 0-9.61 2.91c-2.54 4.2-5.18 18.64-5.42 21.1 0 0 3.57 4.93 8.91 4.1Z"/><path class="cls-23" d="M44.71 472.07a14.77 14.77 0 0 0 11.17-1.35c2.69.08 17.3-6.17 19.29-.92 1.74 4.6-4.58 8.86-8 9.68-7.38 1.79-12.84 5.47-15.8 6.09-2.21.47-5.07.77-6.83-1-2.08-2.05-1.9-9.75.17-12.5Z"/><path class="cls-24" d="M51.4 484.3c3-.63 8.42-4.31 15.8-6.1 2.84-.68 7.72-3.78 8.21-7.48.66 4.24-5 8-8.21 8.76-7.38 1.79-12.84 5.47-15.8 6.09-2.21.47-5.07.77-6.83-1a4.38 4.38 0 0 1-1-1.77c2.6 2.2 5.62 1.96 7.83 1.5Z"/><path class="cls-23" d="M21 461.43a14.77 14.77 0 0 0 11.17-1.35c2.69.08 17.3-6.18 19.29-.92 1.74 4.6-4.58 8.86-8 9.68-7.38 1.79-12.84 5.47-15.8 6.09-2.21.47-5.07.77-6.83-1-2.07-2.05-1.89-9.76.17-12.5Z"/><path class="cls-24" d="M27.7 473.65c3-.62 8.42-4.3 15.8-6.09 2.84-.68 7.72-3.79 8.21-7.48.66 4.24-5.05 8-8.21 8.76-7.38 1.79-12.84 5.47-15.8 6.09-2.21.47-5.07.77-6.83-1a4.27 4.27 0 0 1-1-1.76c2.6 2.17 5.62 1.95 7.83 1.48Z"/><path id="_Контур_3" data-name="&lt;Контур&gt;" d="M20.72 421.73a88.34 88.34 0 0 1 3.37-16s-1-13.81-1.51-26.9C22 364 16.85 350.88 20.92 339l45.85 10.2s-2.77 59.26-3.39 66.43a134.42 134.42 0 0 1-2.05 16.64c-2.1 11.5-5.5 38.86-5.5 38.86-4.85 2.81-11.21 1.25-11.21 1.25s.35-34.59.66-42.88c.38-10.12.69-9.35.69-9.35L44.46 395l-1-12.54s-1.27 9.2-2.09 17.42c-.72 7.17-2.45 13.65-4.39 27-1.67 11.57-4.39 34.83-4.39 34.83-4.85 2.82-11.43.48-11.43.48s-1.76-30.42-.44-40.46Z" style="fill:#8c50ff"/><path id="_Контур_4" data-name="&lt;Контур&gt;" class="cls-21" d="M27.41 268.53c3.49.17 6.09 1.07 6.53 0a47.32 47.32 0 0 0 .8-5.46c-.41-1-.75-2.1-.75-2.1-4.39-2.7-5.77-7.44-6.35-13-1-9.43 4.11-17.68 13.55-18.67 8.86-.92 15.39 5.31 17.13 13.86.94 4.23 2.8 12.21.28 19.16-1.41 3.89-3.23 7-5.05 7.57a42.31 42.31 0 0 1-5.24-.46s-.47 2.62-.79 4.3-.2 2.57 3.15 4.63-5.06 6.3-10.56 5.89-11.68-3.74-13.37-7.29c-1.89-3.88-1.74-8.54.67-8.43Z"/><path id="_Контур_5" data-name="&lt;Контур&gt;" d="M32.46 269.05c-1 2.41 1.49 5.36 8 7.42s7.15-.59 7.15-.59 9.62 4.38 12.75 6.57c3.93 2.75 5.68 10.71 6.21 24.15.61 15.56.67 38.64.15 42.62 0 0-7.36 7.33-16.77 6.56s-25.25-9.11-29.1-15.54c.11-13.64 1.71-15.86-.5-23.72-5.06-18-7.72-25.35-5.26-37.3 2-9.85 4.86-11.08 8.75-11a78.88 78.88 0 0 1 8.62.83Z" style="fill:#f4f4f4"/><path id="_Контур_6" data-name="&lt;Контур&gt;" class="cls-21" d="M81.42 319.47c-7.73 1.94-9.54-2.93-10.56-7-2.46-9.77-3.78-18.59-5.61-24.13-2.16-6.54-4.42-7.58-7.6-8.85-3.73-1.5-6.94 1.65-5.69 10 1.46 9.85 3.39 16.76 7.07 28.4 1 3 3.12 8.45 6.35 11.06 4 3.22 10 3.08 19.07.83 3.87-1 8.12-3.28 15.45-6.7 2-.92 3.5-1.53 7.27-3.29s7.7-4.69 9.68-7.56 1.64-4.68 1.23-5.33c-.51-.82-.79-.17-1.85 1a21.09 21.09 0 0 1-5.56 5.14s2.44-2.52 3.77-4.16a21.07 21.07 0 0 0 2.92-4.77c.7-1.67-.74-3.94-1.84-2.75s-1.61 2.4-3.61 4.8a20.68 20.68 0 0 1-3.58 3.41 39.43 39.43 0 0 0 3.3-5.3c1.27-2.59-3-1.24-5.39 1.28-1.77 1.83-3.27 2.89-3.31 2.38s-3.49 3.19-5.24 5c-1.9 2.12-8.93 4.69-16.27 6.54Z"/><path id="_Контур_7" data-name="&lt;Контур&gt;" class="cls-22" d="M54.79 278.19c5.16-.76 8.81 1.56 11.08 9.38s3.88 14.23 3.88 14.23a14 14 0 0 1-8.65 5.74c-6.17 1.5-8.39-1.45-8.39-1.45s-1.71-8.19-2.78-13.77-1.52-13.18 4.86-14.13Z"/><path d="M58 242s8.15-12.4-9.51-14.92c-12.74-1.82-20.92 6.36-21.87 15.24-.9 8.49 4.32 17.3 8.1 20.79 1.84.66 5.8 1 11-1.33a62.62 62.62 0 0 0 .25-6.95S39.78 241.77 58 242Z" style="fill:#3a2c6d"/></g><path class="cls-21" d="M99.4 309.73s-2-3.65-.74-4.56 3.09 2.51 3.46 3.85-.14-.41-.14-.41-1.37-4.12-.48-4.91 2.09 1 3.28 3.56.3-.23.3-.23-2-4.13-1.13-4.7c1.13-.77 3 1.68 4.11 3.89s-1.49 4.82-1.49 4.82Z"/><g id="Mobile"><path class="cls-6" d="m103.26 316.25-7.49-4.33c-.63-.36-.55-1 .18-1.42L114 300.05a2.74 2.74 0 0 1 2.47-.1l7.49 4.32c.63.37.55 1-.18 1.43l-18.09 10.44a2.74 2.74 0 0 1-2.43.11Z"/><path class="cls-6" d="M95.34 311.3v-.69l.81.3-.81.39zm29.08-6.43v-.66l-.64.41.64.25z"/><path class="cls-7" d="m103.26 315.66-7.49-4.32c-.63-.37-.55-1 .18-1.43L114 299.47a2.74 2.74 0 0 1 2.47-.1l7.49 4.32c.63.37.55 1-.18 1.43l-18.09 10.44a2.74 2.74 0 0 1-2.43.1Z"/><ellipse class="cls-12" cx="96.61" cy="312.11" rx=".08" ry=".14" transform="matrix(.87 -.5 .5 .87 -143.12 90.12)"/><ellipse class="cls-12" cx="96.97" cy="312.31" rx=".08" ry=".14" transform="rotate(-30 96.973 312.324)"/><ellipse class="cls-12" cx="97.33" cy="312.52" rx=".08" ry=".14" transform="rotate(-30 97.335 312.54)"/><ellipse class="cls-12" cx="97.69" cy="312.73" rx=".08" ry=".14" transform="rotate(-30 97.702 312.74)"/><ellipse class="cls-12" cx="100.78" cy="314.52" rx=".08" ry=".14" transform="rotate(-30 100.783 314.525)"/><ellipse class="cls-12" cx="101.14" cy="314.72" rx=".08" ry=".14" transform="rotate(-30 101.145 314.742)"/><ellipse class="cls-12" cx="101.5" cy="314.93" rx=".08" ry=".14" transform="rotate(-30 101.512 314.94)"/><ellipse class="cls-12" cx="101.86" cy="315.14" rx=".08" ry=".14" transform="matrix(.87 -.5 .5 .87 -143.93 93.16)"/><path class="cls-12" d="m99.73 314.06-1-.57a.28.28 0 0 1-.11-.22c0-.08.05-.12.11-.08l1 .57a.26.26 0 0 1 .11.21c0 .09-.05.13-.11.09Zm22.43-7.55-.92.53c-.06 0-.11 0-.11-.08a.27.27 0 0 1 .11-.2l.92-.53c.06 0 .1 0 .1.08a.23.23 0 0 1-.1.2Zm-1.41.82-.92.53c-.06 0-.11 0-.11-.08a.24.24 0 0 1 .11-.2l.92-.54c.06 0 .1 0 .1.08a.27.27 0 0 1-.1.21Z"/><path class="cls-8" d="m103.26 315.56-7.49-4.33c-.63-.36-.55-1 .18-1.42L114 299.36a2.77 2.77 0 0 1 2.47-.1l7.49 4.32c.63.37.55 1-.18 1.43l-18.09 10.44a2.74 2.74 0 0 1-2.43.11Z"/><path class="cls-10" d="m123.19 303.76-2.92-1.69a1.38 1.38 0 0 1-1.25 0 .38.38 0 0 1 0-.72l-2.92-1.69a1.76 1.76 0 0 0-1.61 0l-17.62 10.17a.49.49 0 0 0 0 .93l7.1 4.09a1.76 1.76 0 0 0 1.61 0l17.61-10.17a.48.48 0 0 0 0-.92Z"/><path d="m123.19 303.76-2.92-1.69a1.38 1.38 0 0 1-1.25 0 .38.38 0 0 1 0-.72l-2.92-1.69a1.76 1.76 0 0 0-1.61 0l-17.62 10.17a.49.49 0 0 0 0 .93l7.1 4.09a1.76 1.76 0 0 0 1.61 0l17.61-10.17a.48.48 0 0 0 0-.92Z" style="opacity:.5;fill:url(#Безымянный_градиент_15)"/><ellipse class="cls-10" cx="119.45" cy="301.82" rx=".34" ry=".19"/><path class="cls-11" d="M119.35 301.88c-.06 0-.06-.08 0-.11a.18.18 0 0 1 .2 0 .06.06 0 0 1 0 .11.23.23 0 0 1-.2 0Z"/></g><path class="cls-21" d="M114.9 314.52s4-3.57 3.77-8.3c-.24-3.3-2.23-.92-2.23-.92l-2 3.63s-2 2.59-3.84 3.18a41.46 41.46 0 0 0-4.19.62c-2.46.48-4.91 3.55-4.91 3.55l3.17 2.43Z"/><path class="cls-14" d="m424.67 138.6-23.5-13.6a3 3 0 0 0-2.63-.36 2.17 2.17 0 0 0-.53.31l-4.31 2.47 3 4.16v22.33c0 3.28 2 7.09 4.46 8.51l20.73 12 .68 4.69c.14-.07 3.71-2.12 4.84-2.78a1.92 1.92 0 0 0 .31-.18 4.15 4.15 0 0 0 1.35-3.48v-25.56c.05-3.28-1.94-7.11-4.4-8.51Z"/><path class="cls-29" d="m419.81 178.81-23.5-13.57c-2.46-1.42-4.45-5.23-4.45-8.51v-25.55c0-3.28 2-4.78 4.45-3.36l23.5 13.56c2.46 1.42 4.46 5.24 4.46 8.52v25.54c0 3.28-2 4.79-4.46 3.37Z"/><path class="cls-15" d="M398.79 140.75c0-1.44.41-2.37 1.22-2.8s1.87-.27 3.18.49a8.89 8.89 0 0 1 3.21 3.18 8.23 8.23 0 0 1 1.21 4.3v1.16c0 1.45-.4 2.38-1.21 2.8s-1.87.24-3.18-.52a8.81 8.81 0 0 1-3.21-3.18 8.21 8.21 0 0 1-1.22-4.29Zm2.68 2.79a3.73 3.73 0 0 0 .48 1.83 3.3 3.3 0 0 0 1.27 1.32c.52.3.93.34 1.24.12a1.59 1.59 0 0 0 .46-1.33v-1.19a3.88 3.88 0 0 0-.46-1.83 3.26 3.26 0 0 0-1.27-1.33A1.14 1.14 0 0 0 402 141c-.32.21-.48.66-.48 1.36ZM404 161l-2-2.36L412 146l2 2.36Zm4.49-1.4c0-1.45.41-2.38 1.23-2.8s1.88-.24 3.18.51a9 9 0 0 1 3.2 3.16 8.18 8.18 0 0 1 1.22 4.33v1.16c0 1.43-.4 2.37-1.2 2.79s-1.86.25-3.19-.52a8.79 8.79 0 0 1-3.22-3.19 8.21 8.21 0 0 1-1.22-4.25Zm2.68 2.8a3.81 3.81 0 0 0 .5 1.81 3.44 3.44 0 0 0 1.26 1.35c1.13.66 1.7.26 1.7-1.19v-1.23a3.77 3.77 0 0 0-.47-1.82 3.35 3.35 0 0 0-1.26-1.32 1.15 1.15 0 0 0-1.25-.13 1.48 1.48 0 0 0-.48 1.32Z"/><path class="cls-14" d="m124.06 67.34-23.5-13.57a3 3 0 0 0-2.63-.36 2.61 2.61 0 0 0-.53.31l-4.31 2.47 3 4.16v22.33c0 3.28 2 7.09 4.45 8.51l20.73 12 .69 4.7 4.83-2.79a3.07 3.07 0 0 0 .31-.17 4.11 4.11 0 0 0 1.36-3.48v-25.6c.06-3.28-1.94-7.09-4.4-8.51Z"/><path class="cls-29" d="M119.21 107.55 95.71 94c-2.46-1.42-4.46-5.23-4.46-8.51V59.93c0-3.28 2-4.79 4.46-3.37l23.5 13.57c2.46 1.42 4.45 5.23 4.45 8.51v25.54c0 3.28-1.99 4.82-4.45 3.37Z"/><path style="fill:#f9cb07" d="m107.46 69.99 3.18 9.29 7.13 5.31-5.16 2.83 1.22 8.89-6.37-7.54-6.38.18 1.22-7.49-5.16-8.78 7.13 2.92 3.19-5.61z"/></g></g></svg>